<?xml version="1.0" encoding="UTF-8" standalone="no"?><svg xmlns="http://www.w3.org/2000/svg" xmlns:xlink="http://www.w3.org/1999/xlink" contentScriptType="application/ecmascript" contentStyleType="text/css" height="487px" preserveAspectRatio="none" style="width:1101px;height:487px;" version="1.1" viewBox="0 0 1101 487" width="1101px" zoomAndPan="magnify"><defs><filter height="300%" id="f3j9b7nsnlbsy" width="300%" x="-1" y="-1"><feGaussianBlur result="blurOut" stdDeviation="2.0"/><feColorMatrix in="blurOut" result="blurOut2" type="matrix" values="0 0 0 0 0 0 0 0 0 0 0 0 0 0 0 0 0 0 .4 0"/><feOffset dx="4.0" dy="4.0" in="blurOut2" result="blurOut3"/><feBlend in="SourceGraphic" in2="blurOut3" mode="normal"/></filter></defs><g><!--MD5=[c80fd05985c13756049729d78ea7813f]
cluster Computer--><polygon fill="#FFFFFF" filter="url(#f3j9b7nsnlbsy)" points="16,181,26,171,306,171,306,398,296,408,16,408,16,181" style="stroke:#000000;stroke-width:1.5;"/><line style="stroke:#000000;stroke-width:1.5;" x1="296" x2="306" y1="181" y2="171"/><line style="stroke:#000000;stroke-width:1.5;" x1="16" x2="296" y1="181" y2="181"/><line style="stroke:#000000;stroke-width:1.5;" x1="296" x2="296" y1="181" y2="408"/><text fill="#000000" font-family="sans-serif" font-size="14" font-style="italic" lengthAdjust="spacingAndGlyphs" textLength="56" x="129" y="198.5332">«device»</text><text fill="#000000" font-family="sans-serif" font-size="14" font-weight="bold" lengthAdjust="spacingAndGlyphs" textLength="69" x="122.5" y="216.1426">Computer</text><!--MD5=[8699c0c8e953ee53654a072cc875bfb4]
cluster Browser--><polygon fill="#FFFFFF" filter="url(#f3j9b7nsnlbsy)" points="48,256,58,246,274,246,274,366,264,376,48,376,48,256" style="stroke:#000000;stroke-width:1.5;"/><line style="stroke:#000000;stroke-width:1.5;" x1="264" x2="274" y1="256" y2="246"/><line style="stroke:#000000;stroke-width:1.5;" x1="48" x2="264" y1="256" y2="256"/><line style="stroke:#000000;stroke-width:1.5;" x1="264" x2="264" y1="256" y2="376"/><text fill="#000000" font-family="sans-serif" font-size="14" font-weight="bold" lengthAdjust="spacingAndGlyphs" textLength="59" x="127.5" y="273.5332">Browser</text><!--MD5=[929d5cd9b6f7dd857cf22ad0bc8baa87]
cluster AWS Cloud--><polygon fill="#FFFFFF" filter="url(#f3j9b7nsnlbsy)" points="431,16,441,6,1084,6,1084,470,1074,480,431,480,431,16" style="stroke:#000000;stroke-width:1.5;"/><line style="stroke:#000000;stroke-width:1.5;" x1="1074" x2="1084" y1="16" y2="6"/><line style="stroke:#000000;stroke-width:1.5;" x1="431" x2="1074" y1="16" y2="16"/><line style="stroke:#000000;stroke-width:1.5;" x1="1074" x2="1074" y1="16" y2="480"/><text fill="#000000" font-family="sans-serif" font-size="14" font-weight="bold" lengthAdjust="spacingAndGlyphs" textLength="76" x="715.5" y="33.5332">AWS Cloud</text><!--MD5=[92d3238ea4bfd3a5f1b1bfed64127829]
cluster EC2 instance--><polygon fill="#FFFFFF" filter="url(#f3j9b7nsnlbsy)" points="455,65,465,55,1060,55,1060,446,1050,456,455,456,455,65" style="stroke:#000000;stroke-width:1.5;"/><line style="stroke:#000000;stroke-width:1.5;" x1="1050" x2="1060" y1="65" y2="55"/><line style="stroke:#000000;stroke-width:1.5;" x1="455" x2="1050" y1="65" y2="65"/><line style="stroke:#000000;stroke-width:1.5;" x1="1050" x2="1050" y1="65" y2="456"/><text fill="#000000" font-family="sans-serif" font-size="14" font-weight="bold" lengthAdjust="spacingAndGlyphs" textLength="91" x="708" y="82.5332">EC2 instance</text><!--MD5=[a07f90a0558c49da03311583f1231e3b]
cluster PM2--><polygon fill="#FFFFFF" filter="url(#f3j9b7nsnlbsy)" points="697,114,707,104,1036,104,1036,422,1026,432,697,432,697,114" style="stroke:#000000;stroke-width:1.5;"/><line style="stroke:#000000;stroke-width:1.5;" x1="1026" x2="1036" y1="114" y2="104"/><line style="stroke:#000000;stroke-width:1.5;" x1="697" x2="1026" y1="114" y2="114"/><line style="stroke:#000000;stroke-width:1.5;" x1="1026" x2="1026" y1="114" y2="432"/><text fill="#000000" font-family="sans-serif" font-size="14" font-weight="bold" lengthAdjust="spacingAndGlyphs" textLength="30" x="847.5" y="131.5332">PM2</text><!--MD5=[3cca84f111bad6deea36f310946c30e0]
cluster Node.js--><polygon fill="#FFFFFF" filter="url(#f3j9b7nsnlbsy)" points="721,163,731,153,1012,153,1012,398,1002,408,721,408,721,163" style="stroke:#000000;stroke-width:1.5;"/><line style="stroke:#000000;stroke-width:1.5;" x1="1002" x2="1012" y1="163" y2="153"/><line style="stroke:#000000;stroke-width:1.5;" x1="721" x2="1002" y1="163" y2="163"/><line style="stroke:#000000;stroke-width:1.5;" x1="1002" x2="1002" y1="163" y2="408"/><text fill="#000000" font-family="sans-serif" font-size="14" font-style="italic" lengthAdjust="spacingAndGlyphs" textLength="157" x="784" y="180.5332">«execution environment»</text><text fill="#000000" font-family="sans-serif" font-size="14" font-weight="bold" lengthAdjust="spacingAndGlyphs" textLength="53" x="836" y="198.1426">Node.js</text><!--MD5=[202ed3cfdd71946d549338a391f919b8]
cluster Express--><polygon fill="#FFFFFF" filter="url(#f3j9b7nsnlbsy)" points="753,238,763,228,980,228,980,366,970,376,753,376,753,238" style="stroke:#000000;stroke-width:1.5;"/><line style="stroke:#000000;stroke-width:1.5;" x1="970" x2="980" y1="238" y2="228"/><line style="stroke:#000000;stroke-width:1.5;" x1="753" x2="970" y1="238" y2="238"/><line style="stroke:#000000;stroke-width:1.5;" x1="970" x2="970" y1="238" y2="376"/><text fill="#000000" font-family="sans-serif" font-size="14" font-style="italic" lengthAdjust="spacingAndGlyphs" textLength="127" x="799" y="255.5332">«application server»</text><text fill="#000000" font-family="sans-serif" font-size="14" font-weight="bold" lengthAdjust="spacingAndGlyphs" textLength="57" x="834" y="273.1426">Express</text><!--MD5=[468b56a1d961c08df9de9a0d19ea13c7]
entity Web application frontend--><polygon fill="#FEFECE" filter="url(#f3j9b7nsnlbsy)" points="72,295,72,332.6094,250,332.6094,250,305,240,295,72,295" style="stroke:#000000;stroke-width:1.5;"/><path d="M240,295 L240,305 L250,305 " fill="#FEFECE" style="stroke:#000000;stroke-width:1.5;"/><text fill="#000000" font-family="sans-serif" font-size="14" lengthAdjust="spacingAndGlyphs" textLength="158" x="82" y="319.5332">Web application frontend</text><!--MD5=[8824c66cba45be527cf3dd56bcd70cd2]
entity nginx--><polygon fill="#FEFECE" filter="url(#f3j9b7nsnlbsy)" points="471,354,481,344,544,344,544,381.6094,534,391.6094,471,391.6094,471,354" style="stroke:#000000;stroke-width:1.5;"/><line style="stroke:#000000;stroke-width:1.5;" x1="534" x2="544" y1="354" y2="344"/><line style="stroke:#000000;stroke-width:1.5;" x1="471" x2="534" y1="354" y2="354"/><line style="stroke:#000000;stroke-width:1.5;" x1="534" x2="534" y1="354" y2="391.6094"/><text fill="#000000" font-family="sans-serif" font-size="14" lengthAdjust="spacingAndGlyphs" textLength="33" x="486" y="378.5332">nginx</text><!--MD5=[4e405c554d24a18ce3d195322008b746]
entity Web application backend--><polygon fill="#FEFECE" filter="url(#f3j9b7nsnlbsy)" points="777,295,777,332.6094,956,332.6094,956,305,946,295,777,295" style="stroke:#000000;stroke-width:1.5;"/><path d="M946,295 L946,305 L956,305 " fill="#FEFECE" style="stroke:#000000;stroke-width:1.5;"/><text fill="#000000" font-family="sans-serif" font-size="14" lengthAdjust="spacingAndGlyphs" textLength="159" x="787" y="319.5332">Web application backend</text><!--MD5=[754e008431639c4e3d6cc6c16a60a409]
link Browser to nginx--><path d="M274.618,368 C275.1218,368 275.6264,368 276.1317,368 C277.1424,368 278.1561,368 279.1726,368 C281.2058,368 283.2503,368 285.305,368 C351.055,368 427.18,368 470.8,368 " fill="none" id="Browser-nginx" style="stroke:#A80036;stroke-width:1.0;"/><text fill="#000000" font-family="sans-serif" font-size="13" lengthAdjust="spacingAndGlyphs" textLength="91" x="323" y="364.4951">HTTP (TCP :80)</text><!--MD5=[42b218f8990e47cba1e79acf26611b3e]
link nginx to Express--><path d="M544.04,368 C588.48,368 667.0475,368 735.3825,368 C739.6534,368 743.8844,368 748.0646,368 C749.1096,368 750.1515,368 751.19,368 C751.7093,368 752.2277,368 752.7453,368 " fill="none" id="nginx-Express" style="stroke:#A80036;stroke-width:1.0;"/><text fill="#000000" font-family="sans-serif" font-size="13" lengthAdjust="spacingAndGlyphs" textLength="105" x="575" y="364.4951">HTTP (TCP :3000)</text><!--MD5=[b30e558766af82fd4613cba57f19d1ea]
@startuml production_env
left to right direction

node Computer <<device>> {
  node Browser {
    file "Web application frontend"
  }
}
node "AWS Cloud" {
  node "EC2 instance" {
    node nginx
    node PM2 {
      node Node.js <<execution environment>> {
        node Express <<application server>> {
          file "Web application backend"
        }
      }
    }
  }
}
Browser - - nginx : HTTP (TCP :80)
nginx - - Express : HTTP (TCP :3000)
@enduml

PlantUML version 1.2020.22(Sun Dec 06 10:36:27 CET 2020)
(GPL source distribution)
Java Runtime: Java(TM) SE Runtime Environment
JVM: Java HotSpot(TM) 64-Bit Server VM
Default Encoding: Cp1252
Language: fr
Country: FR
--></g></svg>