<?xml version="1.0" encoding="UTF-8" standalone="no"?>
<!DOCTYPE svg PUBLIC "-//W3C//DTD SVG 1.1//EN"
 "http://www.w3.org/Graphics/SVG/1.1/DTD/svg11.dtd">
<!-- Generated by graphviz version 2.44.1 (20200629.0846)
 -->
<!-- Title: g Pages: 1 -->
<svg width="493pt" height="206pt"
 viewBox="0.00 0.00 493.00 206.00" xmlns="http://www.w3.org/2000/svg" xmlns:xlink="http://www.w3.org/1999/xlink">
<g id="graph0" class="graph" transform="scale(1 1) rotate(0) translate(4 202)">
<title>g</title>
<polygon fill="white" stroke="transparent" points="-4,4 -4,-202 489,-202 489,4 -4,4"/>
<!-- home -->
<g id="node1" class="node">
<title>home</title>
<polygon fill="none" stroke="black" points="90,-117 0,-117 0,-81 96,-81 96,-111 90,-117"/>
<polyline fill="none" stroke="black" points="90,-117 90,-111 "/>
<polyline fill="none" stroke="black" points="96,-111 90,-111 "/>
<text text-anchor="middle" x="48" y="-95.3" font-family="Times New Roman,serif" font-size="14.00">Page d&#39;accueil</text>
</g>
<!-- item_form -->
<g id="node2" class="node">
<title>item_form</title>
<polygon fill="none" stroke="black" points="286,-198 179,-198 179,-162 292,-162 292,-192 286,-198"/>
<polyline fill="none" stroke="black" points="286,-198 286,-192 "/>
<polyline fill="none" stroke="black" points="292,-192 286,-192 "/>
<text text-anchor="middle" x="235.5" y="-176.3" font-family="Times New Roman,serif" font-size="14.00">Formulaire article</text>
</g>
<!-- home&#45;&gt;item_form -->
<g id="edge1" class="edge">
<title>home&#45;&gt;item_form</title>
<path fill="none" stroke="black" d="M87.68,-117.03C110.87,-127.72 141.01,-141.4 168,-153 171.86,-154.66 175.86,-156.35 179.9,-158.04"/>
<polygon fill="black" stroke="black" points="178.75,-161.35 189.33,-161.94 181.43,-154.88 178.75,-161.35"/>
</g>
<!-- container_form -->
<g id="node3" class="node">
<title>container_form</title>
<polygon fill="none" stroke="black" points="297,-144 168,-144 168,-108 303,-108 303,-138 297,-144"/>
<polyline fill="none" stroke="black" points="297,-144 297,-138 "/>
<polyline fill="none" stroke="black" points="303,-138 297,-138 "/>
<text text-anchor="middle" x="235.5" y="-122.3" font-family="Times New Roman,serif" font-size="14.00">Formulaire conteneur</text>
</g>
<!-- home&#45;&gt;container_form -->
<g id="edge2" class="edge">
<title>home&#45;&gt;container_form</title>
<path fill="none" stroke="black" d="M96.29,-105.88C114.92,-108.6 136.81,-111.78 157.6,-114.81"/>
<polygon fill="black" stroke="black" points="157.3,-118.3 167.7,-116.28 158.31,-111.37 157.3,-118.3"/>
</g>
<!-- item_list -->
<g id="node4" class="node">
<title>item_list</title>
<polygon fill="none" stroke="black" points="272.5,-90 192.5,-90 192.5,-54 278.5,-54 278.5,-84 272.5,-90"/>
<polyline fill="none" stroke="black" points="272.5,-90 272.5,-84 "/>
<polyline fill="none" stroke="black" points="278.5,-84 272.5,-84 "/>
<text text-anchor="middle" x="235.5" y="-68.3" font-family="Times New Roman,serif" font-size="14.00">Liste articles</text>
</g>
<!-- home&#45;&gt;item_list -->
<g id="edge3" class="edge">
<title>home&#45;&gt;item_list</title>
<path fill="none" stroke="black" d="M96.29,-92.12C122.56,-88.29 155.29,-83.53 182.31,-79.6"/>
<polygon fill="black" stroke="black" points="182.97,-83.04 192.36,-78.13 181.96,-76.11 182.97,-83.04"/>
</g>
<!-- container_list -->
<g id="node5" class="node">
<title>container_list</title>
<polygon fill="none" stroke="black" points="283.5,-36 181.5,-36 181.5,0 289.5,0 289.5,-30 283.5,-36"/>
<polyline fill="none" stroke="black" points="283.5,-36 283.5,-30 "/>
<polyline fill="none" stroke="black" points="289.5,-30 283.5,-30 "/>
<text text-anchor="middle" x="235.5" y="-14.3" font-family="Times New Roman,serif" font-size="14.00">Liste conteneurs</text>
</g>
<!-- home&#45;&gt;container_list -->
<g id="edge4" class="edge">
<title>home&#45;&gt;container_list</title>
<path fill="none" stroke="black" d="M87.68,-80.97C110.87,-70.28 141.01,-56.6 168,-45 171.86,-43.34 175.86,-41.65 179.9,-39.96"/>
<polygon fill="black" stroke="black" points="181.43,-43.12 189.33,-36.06 178.75,-36.65 181.43,-43.12"/>
</g>
<!-- inventory_details -->
<g id="node6" class="node">
<title>inventory_details</title>
<polygon fill="none" stroke="black" points="479,-63 375,-63 375,-27 485,-27 485,-57 479,-63"/>
<polyline fill="none" stroke="black" points="479,-63 479,-57 "/>
<polyline fill="none" stroke="black" points="485,-57 479,-57 "/>
<text text-anchor="middle" x="430" y="-41.3" font-family="Times New Roman,serif" font-size="14.00">Détails inventaire</text>
</g>
<!-- item_list&#45;&gt;inventory_details -->
<g id="edge5" class="edge">
<title>item_list&#45;&gt;inventory_details</title>
<path fill="none" stroke="black" d="M278.74,-66.07C303.88,-62.55 336.28,-58 364.56,-54.04"/>
<polygon fill="black" stroke="black" points="365.35,-57.46 374.76,-52.61 364.38,-50.53 365.35,-57.46"/>
</g>
<!-- container_list&#45;&gt;inventory_details -->
<g id="edge6" class="edge">
<title>container_list&#45;&gt;inventory_details</title>
<path fill="none" stroke="black" d="M289.61,-25.45C312.79,-28.7 340.17,-32.54 364.5,-35.95"/>
<polygon fill="black" stroke="black" points="364.33,-39.46 374.72,-37.39 365.31,-32.53 364.33,-39.46"/>
</g>
</g>
</svg>
