<?xml version="1.0" encoding="UTF-8" standalone="no"?>
<!DOCTYPE svg PUBLIC "-//W3C//DTD SVG 1.1//EN"
 "http://www.w3.org/Graphics/SVG/1.1/DTD/svg11.dtd">
<!-- Generated by graphviz version 2.44.1 (20200629.0846)
 -->
<!-- Title: g Pages: 1 -->
<svg width="471pt" height="152pt"
 viewBox="0.00 0.00 471.00 152.00" xmlns="http://www.w3.org/2000/svg" xmlns:xlink="http://www.w3.org/1999/xlink">
<g id="graph0" class="graph" transform="scale(1 1) rotate(0) translate(4 148)">
<title>g</title>
<polygon fill="white" stroke="transparent" points="-4,4 -4,-148 467,-148 467,4 -4,4"/>
<!-- navigation -->
<g id="node1" class="node">
<title>navigation</title>
<polygon fill="none" stroke="black" points="76,-90 0,-90 0,-54 76,-54 76,-90"/>
<text text-anchor="middle" x="38" y="-68.3" font-family="Times New Roman,serif" font-size="14.00">Navigation</text>
</g>
<!-- item_list -->
<g id="node4" class="node">
<title>item_list</title>
<polygon fill="none" stroke="black" points="239,-117 159,-117 159,-81 245,-81 245,-111 239,-117"/>
<polyline fill="none" stroke="black" points="239,-117 239,-111 "/>
<polyline fill="none" stroke="black" points="245,-111 239,-111 "/>
<text text-anchor="middle" x="202" y="-95.3" font-family="Times New Roman,serif" font-size="14.00">Liste articles</text>
</g>
<!-- navigation&#45;&gt;item_list -->
<g id="edge1" class="edge">
<title>navigation&#45;&gt;item_list</title>
<path fill="none" stroke="black" d="M76.17,-78.19C97.74,-81.79 125.26,-86.38 148.97,-90.33"/>
<polygon fill="black" stroke="black" points="148.43,-93.79 158.87,-91.98 149.58,-86.88 148.43,-93.79"/>
</g>
<!-- container_list -->
<g id="node5" class="node">
<title>container_list</title>
<polygon fill="none" stroke="black" points="250,-63 148,-63 148,-27 256,-27 256,-57 250,-63"/>
<polyline fill="none" stroke="black" points="250,-63 250,-57 "/>
<polyline fill="none" stroke="black" points="256,-57 250,-57 "/>
<text text-anchor="middle" x="202" y="-41.3" font-family="Times New Roman,serif" font-size="14.00">Liste conteneurs</text>
</g>
<!-- navigation&#45;&gt;container_list -->
<g id="edge3" class="edge">
<title>navigation&#45;&gt;container_list</title>
<path fill="none" stroke="black" d="M76.17,-65.81C94.39,-62.77 116.85,-59.03 137.67,-55.56"/>
<polygon fill="black" stroke="black" points="138.44,-58.97 147.73,-53.88 137.29,-52.07 138.44,-58.97"/>
</g>
<!-- item_form -->
<g id="node2" class="node">
<title>item_form</title>
<polygon fill="none" stroke="black" points="446,-144 339,-144 339,-108 452,-108 452,-138 446,-144"/>
<polyline fill="none" stroke="black" points="446,-144 446,-138 "/>
<polyline fill="none" stroke="black" points="452,-138 446,-138 "/>
<text text-anchor="middle" x="395.5" y="-122.3" font-family="Times New Roman,serif" font-size="14.00">Formulaire article</text>
</g>
<!-- container_form -->
<g id="node3" class="node">
<title>container_form</title>
<polygon fill="none" stroke="black" points="457,-36 328,-36 328,0 463,0 463,-30 457,-36"/>
<polyline fill="none" stroke="black" points="457,-36 457,-30 "/>
<polyline fill="none" stroke="black" points="463,-30 457,-30 "/>
<text text-anchor="middle" x="395.5" y="-14.3" font-family="Times New Roman,serif" font-size="14.00">Formulaire conteneur</text>
</g>
<!-- item_list&#45;&gt;item_form -->
<g id="edge2" class="edge">
<title>item_list&#45;&gt;item_form</title>
<path fill="none" stroke="black" d="M245.03,-104.93C269.54,-108.38 301,-112.82 328.73,-116.73"/>
<polygon fill="black" stroke="black" points="328.37,-120.21 338.76,-118.14 329.35,-113.28 328.37,-120.21"/>
</g>
<!-- inventory_details -->
<g id="node6" class="node">
<title>inventory_details</title>
<polygon fill="none" stroke="black" points="444.5,-90 340.5,-90 340.5,-54 450.5,-54 450.5,-84 444.5,-90"/>
<polyline fill="none" stroke="black" points="444.5,-90 444.5,-84 "/>
<polyline fill="none" stroke="black" points="450.5,-84 444.5,-84 "/>
<text text-anchor="middle" x="395.5" y="-68.3" font-family="Times New Roman,serif" font-size="14.00">Détails inventaire</text>
</g>
<!-- item_list&#45;&gt;inventory_details -->
<g id="edge5" class="edge">
<title>item_list&#45;&gt;inventory_details</title>
<path fill="none" stroke="black" d="M245.03,-93.07C269.93,-89.56 302.01,-85.04 330.06,-81.09"/>
<polygon fill="black" stroke="black" points="330.78,-84.52 340.19,-79.66 329.8,-77.59 330.78,-84.52"/>
</g>
<!-- container_list&#45;&gt;container_form -->
<g id="edge4" class="edge">
<title>container_list&#45;&gt;container_form</title>
<path fill="none" stroke="black" d="M256.09,-37.51C275.21,-34.82 297.18,-31.72 317.91,-28.8"/>
<polygon fill="black" stroke="black" points="318.55,-32.24 327.96,-27.38 317.57,-25.31 318.55,-32.24"/>
</g>
<!-- container_list&#45;&gt;inventory_details -->
<g id="edge6" class="edge">
<title>container_list&#45;&gt;inventory_details</title>
<path fill="none" stroke="black" d="M256.09,-52.49C279.04,-55.72 306.11,-59.54 330.19,-62.93"/>
<polygon fill="black" stroke="black" points="329.92,-66.43 340.31,-64.36 330.89,-59.5 329.92,-66.43"/>
</g>
</g>
</svg>
