<?xml version="1.0" encoding="UTF-8" standalone="no"?>
<!DOCTYPE svg PUBLIC "-//W3C//DTD SVG 1.1//EN"
 "http://www.w3.org/Graphics/SVG/1.1/DTD/svg11.dtd">
<!-- Generated by graphviz version 2.44.1 (20200629.0846)
 -->
<!-- Title: g Pages: 1 -->
<svg width="501pt" height="206pt"
 viewBox="0.00 0.00 501.00 206.00" xmlns="http://www.w3.org/2000/svg" xmlns:xlink="http://www.w3.org/1999/xlink">
<g id="graph0" class="graph" transform="scale(1 1) rotate(0) translate(4 202)">
<title>g</title>
<polygon fill="white" stroke="transparent" points="-4,4 -4,-202 497,-202 497,4 -4,4"/>
<!-- home -->
<g id="node1" class="node">
<title>home</title>
<polygon fill="none" stroke="black" points="90,-117 0,-117 0,-81 96,-81 96,-111 90,-117"/>
<polyline fill="none" stroke="black" points="90,-117 90,-111 "/>
<polyline fill="none" stroke="black" points="96,-111 90,-111 "/>
<text text-anchor="middle" x="48" y="-95.3" font-family="Times New Roman,serif" font-size="14.00">Page d&#39;accueil</text>
</g>
<!-- component_form -->
<g id="node2" class="node">
<title>component_form</title>
<polygon fill="none" stroke="black" points="305,-198 168,-198 168,-162 311,-162 311,-192 305,-198"/>
<polyline fill="none" stroke="black" points="305,-198 305,-192 "/>
<polyline fill="none" stroke="black" points="311,-192 305,-192 "/>
<text text-anchor="middle" x="239.5" y="-176.3" font-family="Times New Roman,serif" font-size="14.00">Formulaire composant</text>
</g>
<!-- home&#45;&gt;component_form -->
<g id="edge1" class="edge">
<title>home&#45;&gt;component_form</title>
<path fill="none" stroke="black" d="M87.33,-117.1C110.53,-127.88 140.79,-141.63 168,-153 172.12,-154.72 176.4,-156.47 180.72,-158.2"/>
<polygon fill="black" stroke="black" points="179.6,-161.52 190.18,-161.94 182.17,-155.01 179.6,-161.52"/>
</g>
<!-- container_form -->
<g id="node3" class="node">
<title>container_form</title>
<polygon fill="none" stroke="black" points="301,-144 172,-144 172,-108 307,-108 307,-138 301,-144"/>
<polyline fill="none" stroke="black" points="301,-144 301,-138 "/>
<polyline fill="none" stroke="black" points="307,-138 301,-138 "/>
<text text-anchor="middle" x="239.5" y="-122.3" font-family="Times New Roman,serif" font-size="14.00">Formulaire conteneur</text>
</g>
<!-- home&#45;&gt;container_form -->
<g id="edge2" class="edge">
<title>home&#45;&gt;container_form</title>
<path fill="none" stroke="black" d="M96.33,-105.74C116.1,-108.56 139.59,-111.91 161.72,-115.06"/>
<polygon fill="black" stroke="black" points="161.38,-118.55 171.77,-116.49 162.37,-111.62 161.38,-118.55"/>
</g>
<!-- component_list -->
<g id="node4" class="node">
<title>component_list</title>
<polygon fill="none" stroke="black" points="291.5,-90 181.5,-90 181.5,-54 297.5,-54 297.5,-84 291.5,-90"/>
<polyline fill="none" stroke="black" points="291.5,-90 291.5,-84 "/>
<polyline fill="none" stroke="black" points="297.5,-84 291.5,-84 "/>
<text text-anchor="middle" x="239.5" y="-68.3" font-family="Times New Roman,serif" font-size="14.00">Liste composants</text>
</g>
<!-- home&#45;&gt;component_list -->
<g id="edge3" class="edge">
<title>home&#45;&gt;component_list</title>
<path fill="none" stroke="black" d="M96.33,-92.26C118.97,-89.03 146.48,-85.11 171.25,-81.58"/>
<polygon fill="black" stroke="black" points="171.9,-85.02 181.31,-80.15 170.92,-78.09 171.9,-85.02"/>
</g>
<!-- container_list -->
<g id="node5" class="node">
<title>container_list</title>
<polygon fill="none" stroke="black" points="287.5,-36 185.5,-36 185.5,0 293.5,0 293.5,-30 287.5,-36"/>
<polyline fill="none" stroke="black" points="287.5,-36 287.5,-30 "/>
<polyline fill="none" stroke="black" points="293.5,-30 287.5,-30 "/>
<text text-anchor="middle" x="239.5" y="-14.3" font-family="Times New Roman,serif" font-size="14.00">Liste conteneurs</text>
</g>
<!-- home&#45;&gt;container_list -->
<g id="edge4" class="edge">
<title>home&#45;&gt;container_list</title>
<path fill="none" stroke="black" d="M87.33,-80.9C110.53,-70.12 140.79,-56.37 168,-45 172.12,-43.28 176.4,-41.53 180.72,-39.8"/>
<polygon fill="black" stroke="black" points="182.17,-42.99 190.18,-36.06 179.6,-36.48 182.17,-42.99"/>
</g>
<!-- inventory_details -->
<g id="node6" class="node">
<title>inventory_details</title>
<polygon fill="none" stroke="black" points="487,-63 383,-63 383,-27 493,-27 493,-57 487,-63"/>
<polyline fill="none" stroke="black" points="487,-63 487,-57 "/>
<polyline fill="none" stroke="black" points="493,-57 487,-57 "/>
<text text-anchor="middle" x="438" y="-41.3" font-family="Times New Roman,serif" font-size="14.00">Détails inventaire</text>
</g>
<!-- component_list&#45;&gt;inventory_details -->
<g id="edge5" class="edge">
<title>component_list&#45;&gt;inventory_details</title>
<path fill="none" stroke="black" d="M297.6,-64.15C321.1,-60.93 348.43,-57.17 372.64,-53.84"/>
<polygon fill="black" stroke="black" points="373.37,-57.28 382.8,-52.45 372.41,-50.34 373.37,-57.28"/>
</g>
<!-- container_list&#45;&gt;inventory_details -->
<g id="edge6" class="edge">
<title>container_list&#45;&gt;inventory_details</title>
<path fill="none" stroke="black" d="M293.68,-25.31C318.06,-28.66 347.17,-32.66 372.77,-36.17"/>
<polygon fill="black" stroke="black" points="372.37,-39.65 382.76,-37.55 373.33,-32.72 372.37,-39.65"/>
</g>
</g>
</svg>
