<?xml version="1.0" encoding="UTF-8" standalone="no"?>
<!DOCTYPE svg PUBLIC "-//W3C//DTD SVG 1.1//EN"
 "http://www.w3.org/Graphics/SVG/1.1/DTD/svg11.dtd">
<!-- Generated by graphviz version 2.44.1 (20200629.0846)
 -->
<!-- Title: g Pages: 1 -->
<svg width="473pt" height="206pt"
 viewBox="0.00 0.00 473.00 206.00" xmlns="http://www.w3.org/2000/svg" xmlns:xlink="http://www.w3.org/1999/xlink">
<g id="graph0" class="graph" transform="scale(1 1) rotate(0) translate(4 202)">
<title>g</title>
<polygon fill="white" stroke="transparent" points="-4,4 -4,-202 469,-202 469,4 -4,4"/>
<!-- navigation -->
<g id="node1" class="node">
<title>navigation</title>
<polygon fill="none" stroke="black" points="76,-117 0,-117 0,-81 76,-81 76,-117"/>
<text text-anchor="middle" x="38" y="-95.3" font-family="Times New Roman,serif" font-size="14.00">Navigation</text>
</g>
<!-- item_form -->
<g id="node2" class="node">
<title>item_form</title>
<polygon fill="none" stroke="black" points="266,-198 159,-198 159,-162 272,-162 272,-192 266,-198"/>
<polyline fill="none" stroke="black" points="266,-198 266,-192 "/>
<polyline fill="none" stroke="black" points="272,-192 266,-192 "/>
<text text-anchor="middle" x="215.5" y="-176.3" font-family="Times New Roman,serif" font-size="14.00">Formulaire article</text>
</g>
<!-- navigation&#45;&gt;item_form -->
<g id="edge1" class="edge">
<title>navigation&#45;&gt;item_form</title>
<path fill="none" stroke="black" d="M74.03,-117.18C95.25,-127.99 122.96,-141.73 148,-153 151.6,-154.62 155.34,-156.26 159.11,-157.88"/>
<polygon fill="black" stroke="black" points="157.95,-161.18 168.52,-161.85 160.67,-154.74 157.95,-161.18"/>
</g>
<!-- container_form -->
<g id="node3" class="node">
<title>container_form</title>
<polygon fill="none" stroke="black" points="277,-144 148,-144 148,-108 283,-108 283,-138 277,-144"/>
<polyline fill="none" stroke="black" points="277,-144 277,-138 "/>
<polyline fill="none" stroke="black" points="283,-138 277,-138 "/>
<text text-anchor="middle" x="215.5" y="-122.3" font-family="Times New Roman,serif" font-size="14.00">Formulaire conteneur</text>
</g>
<!-- navigation&#45;&gt;container_form -->
<g id="edge2" class="edge">
<title>navigation&#45;&gt;container_form</title>
<path fill="none" stroke="black" d="M76.22,-104.73C94.2,-107.49 116.47,-110.92 137.85,-114.21"/>
<polygon fill="black" stroke="black" points="137.51,-117.7 147.92,-115.76 138.57,-110.78 137.51,-117.7"/>
</g>
<!-- item_list -->
<g id="node4" class="node">
<title>item_list</title>
<polygon fill="none" stroke="black" points="252.5,-90 172.5,-90 172.5,-54 258.5,-54 258.5,-84 252.5,-90"/>
<polyline fill="none" stroke="black" points="252.5,-90 252.5,-84 "/>
<polyline fill="none" stroke="black" points="258.5,-84 252.5,-84 "/>
<text text-anchor="middle" x="215.5" y="-68.3" font-family="Times New Roman,serif" font-size="14.00">Liste articles</text>
</g>
<!-- navigation&#45;&gt;item_list -->
<g id="edge3" class="edge">
<title>navigation&#45;&gt;item_list</title>
<path fill="none" stroke="black" d="M76.22,-93.27C101.31,-89.41 134.76,-84.27 162.48,-80"/>
<polygon fill="black" stroke="black" points="163.06,-83.46 172.41,-78.48 161.99,-76.54 163.06,-83.46"/>
</g>
<!-- container_list -->
<g id="node5" class="node">
<title>container_list</title>
<polygon fill="none" stroke="black" points="263.5,-36 161.5,-36 161.5,0 269.5,0 269.5,-30 263.5,-36"/>
<polyline fill="none" stroke="black" points="263.5,-36 263.5,-30 "/>
<polyline fill="none" stroke="black" points="269.5,-30 263.5,-30 "/>
<text text-anchor="middle" x="215.5" y="-14.3" font-family="Times New Roman,serif" font-size="14.00">Liste conteneurs</text>
</g>
<!-- navigation&#45;&gt;container_list -->
<g id="edge4" class="edge">
<title>navigation&#45;&gt;container_list</title>
<path fill="none" stroke="black" d="M74.03,-80.82C95.25,-70.01 122.96,-56.27 148,-45 151.6,-43.38 155.34,-41.74 159.11,-40.12"/>
<polygon fill="black" stroke="black" points="160.67,-43.26 168.52,-36.15 157.95,-36.82 160.67,-43.26"/>
</g>
<!-- inventory_details -->
<g id="node6" class="node">
<title>inventory_details</title>
<polygon fill="none" stroke="black" points="459,-63 355,-63 355,-27 465,-27 465,-57 459,-63"/>
<polyline fill="none" stroke="black" points="459,-63 459,-57 "/>
<polyline fill="none" stroke="black" points="465,-57 459,-57 "/>
<text text-anchor="middle" x="410" y="-41.3" font-family="Times New Roman,serif" font-size="14.00">Détails inventaire</text>
</g>
<!-- item_list&#45;&gt;inventory_details -->
<g id="edge5" class="edge">
<title>item_list&#45;&gt;inventory_details</title>
<path fill="none" stroke="black" d="M258.74,-66.07C283.88,-62.55 316.28,-58 344.56,-54.04"/>
<polygon fill="black" stroke="black" points="345.35,-57.46 354.76,-52.61 344.38,-50.53 345.35,-57.46"/>
</g>
<!-- container_list&#45;&gt;inventory_details -->
<g id="edge6" class="edge">
<title>container_list&#45;&gt;inventory_details</title>
<path fill="none" stroke="black" d="M269.61,-25.45C292.79,-28.7 320.17,-32.54 344.5,-35.95"/>
<polygon fill="black" stroke="black" points="344.33,-39.46 354.72,-37.39 345.31,-32.53 344.33,-39.46"/>
</g>
</g>
</svg>
