<?xml version="1.0" encoding="UTF-8" standalone="no"?><svg xmlns="http://www.w3.org/2000/svg" xmlns:xlink="http://www.w3.org/1999/xlink" contentScriptType="application/ecmascript" contentStyleType="text/css" height="111px" preserveAspectRatio="none" style="width:242px;height:111px;" version="1.1" viewBox="0 0 242 111" width="242px" zoomAndPan="magnify"><defs/><g><text fill="#000000" font-family="sans-serif" font-size="16" font-weight="bold" lengthAdjust="spacingAndGlyphs" textLength="228" x="6" y="22.6094">Lab, armoire B, conteneur 123</text><text fill="#000000" font-family="sans-serif" font-size="12" font-weight="bold" lengthAdjust="spacingAndGlyphs" textLength="65" x="7" y="41.582">Composant</text><text fill="#000000" font-family="sans-serif" font-size="12" font-weight="bold" lengthAdjust="spacingAndGlyphs" textLength="48" x="177" y="41.582">Quantité</text><text fill="#000000" font-family="sans-serif" font-size="12" lengthAdjust="spacingAndGlyphs" textLength="110" x="7" y="58.6758">Résistance 50 Ohm</text><text fill="#000000" font-family="sans-serif" font-size="12" lengthAdjust="spacingAndGlyphs" textLength="14" x="180" y="58.6758">48</text><line style="stroke:#000000;stroke-width:1.0;" x1="178" x2="197" y1="61.3125" y2="61.3125"/><line style="stroke:#000000;stroke-width:1.0;" x1="178" x2="178" y1="58.3125" y2="60.3125"/><line style="stroke:#000000;stroke-width:1.0;" x1="197" x2="197" y1="58.3125" y2="60.3125"/><rect fill="#EEEEEE" height="12" rx="5" ry="5" style="stroke:#000000;stroke-width:2.5;" width="20" x="211.5" y="48.7188"/><path d="M223.5,50.7188 L222.5,51.7188 L224.5,53.7188 L225.5,52.7188 L223.5,50.7188 M221.5,52.7188 L217.5,56.7188 L217.5,58.7188 L219.5,58.7188 L223.5,54.7188 L221.5,52.7188 " fill="#000000" style="stroke:;stroke-width:0.0;stroke-dasharray:;"/><text fill="#000000" font-family="sans-serif" font-size="12" lengthAdjust="spacingAndGlyphs" textLength="90" x="7" y="77.7695">Capacité 100 uF</text><text fill="#000000" font-family="sans-serif" font-size="12" lengthAdjust="spacingAndGlyphs" textLength="21" x="180" y="77.7695">500</text><line style="stroke:#000000;stroke-width:1.0;" x1="178" x2="205" y1="80.4063" y2="80.4063"/><line style="stroke:#000000;stroke-width:1.0;" x1="178" x2="178" y1="77.4063" y2="79.4063"/><line style="stroke:#000000;stroke-width:1.0;" x1="205" x2="205" y1="77.4063" y2="79.4063"/><rect fill="#EEEEEE" height="12" rx="5" ry="5" style="stroke:#000000;stroke-width:2.5;" width="20" x="211.5" y="67.8125"/><path d="M223.5,69.8125 L222.5,70.8125 L224.5,72.8125 L225.5,71.8125 L223.5,69.8125 M221.5,71.8125 L217.5,75.8125 L217.5,77.8125 L219.5,77.8125 L223.5,73.8125 L221.5,71.8125 " fill="#000000" style="stroke:;stroke-width:0.0;stroke-dasharray:;"/><rect fill="#EEEEEE" height="18.0938" style="stroke:#000000;stroke-width:1.0;" width="167" x="7" y="84.4063"/><text fill="#000000" font-family="sans-serif" font-size="12" lengthAdjust="spacingAndGlyphs" textLength="123" x="9" y="98.8633">Résistance 100 kOhm</text><line style="stroke:#000000;stroke-width:1.0;" x1="163" x2="163" y1="84.4063" y2="102.5"/><polygon fill="#000000" points="166,90.4063,172,90.4063,169,97.5" style="stroke:#000000;stroke-width:1.0;"/><text fill="#000000" font-family="sans-serif" font-size="12" lengthAdjust="spacingAndGlyphs" textLength="0" x="183" y="96.8633"/><line style="stroke:#000000;stroke-width:1.0;" x1="178" x2="205" y1="99.5" y2="99.5"/><line style="stroke:#000000;stroke-width:1.0;" x1="178" x2="178" y1="96.5" y2="98.5"/><line style="stroke:#000000;stroke-width:1.0;" x1="205" x2="205" y1="96.5" y2="98.5"/><rect fill="#EEEEEE" height="12" rx="5" ry="5" style="stroke:#000000;stroke-width:2.5;" width="20" x="211.5" y="86.9063"/><path d="M220.5,88.9063 L220.5,91.9063 L217.5,91.9063 L217.5,93.9063 L220.5,93.9063 L220.5,96.9063 L222.5,96.9063 L222.5,93.9063 L225.5,93.9063 L225.5,91.9063 L222.5,91.9063 L222.5,88.9063 L220.5,88.9063 " fill="#000000" style="stroke:;stroke-width:0.0;stroke-dasharray:;"/><line style="stroke:#000000;stroke-width:1.0;" x1="6" x2="176" y1="28.125" y2="28.125"/><line style="stroke:#000000;stroke-width:1.0;" x1="208" x2="235" y1="64.3125" y2="64.3125"/><line style="stroke:#000000;stroke-width:1.0;" x1="176" x2="208" y1="28.125" y2="28.125"/><line style="stroke:#000000;stroke-width:1.0;" x1="208" x2="235" y1="28.125" y2="28.125"/><line style="stroke:#000000;stroke-width:1.0;" x1="6" x2="176" y1="83.4063" y2="83.4063"/><line style="stroke:#000000;stroke-width:1.0;" x1="176" x2="208" y1="83.4063" y2="83.4063"/><line style="stroke:#000000;stroke-width:1.0;" x1="6" x2="176" y1="45.2188" y2="45.2188"/><line style="stroke:#000000;stroke-width:1.0;" x1="208" x2="235" y1="83.4063" y2="83.4063"/><line style="stroke:#000000;stroke-width:1.0;" x1="176" x2="208" y1="45.2188" y2="45.2188"/><line style="stroke:#000000;stroke-width:1.0;" x1="208" x2="235" y1="45.2188" y2="45.2188"/><line style="stroke:#000000;stroke-width:1.0;" x1="6" x2="176" y1="104.5" y2="104.5"/><line style="stroke:#000000;stroke-width:1.0;" x1="176" x2="208" y1="104.5" y2="104.5"/><line style="stroke:#000000;stroke-width:1.0;" x1="208" x2="235" y1="104.5" y2="104.5"/><line style="stroke:#000000;stroke-width:1.0;" x1="6" x2="176" y1="64.3125" y2="64.3125"/><line style="stroke:#000000;stroke-width:1.0;" x1="176" x2="208" y1="64.3125" y2="64.3125"/><line style="stroke:#000000;stroke-width:1.0;" x1="6" x2="6" y1="28.125" y2="45.2188"/><line style="stroke:#000000;stroke-width:1.0;" x1="208" x2="208" y1="64.3125" y2="83.4063"/><line style="stroke:#000000;stroke-width:1.0;" x1="235" x2="235" y1="64.3125" y2="83.4063"/><line style="stroke:#000000;stroke-width:1.0;" x1="176" x2="176" y1="28.125" y2="45.2188"/><line style="stroke:#000000;stroke-width:1.0;" x1="235" x2="235" y1="28.125" y2="45.2188"/><line style="stroke:#000000;stroke-width:1.0;" x1="6" x2="6" y1="83.4063" y2="104.5"/><line style="stroke:#000000;stroke-width:1.0;" x1="176" x2="176" y1="83.4063" y2="104.5"/><line style="stroke:#000000;stroke-width:1.0;" x1="6" x2="6" y1="45.2188" y2="64.3125"/><line style="stroke:#000000;stroke-width:1.0;" x1="208" x2="208" y1="83.4063" y2="104.5"/><line style="stroke:#000000;stroke-width:1.0;" x1="235" x2="235" y1="83.4063" y2="104.5"/><line style="stroke:#000000;stroke-width:1.0;" x1="176" x2="176" y1="45.2188" y2="64.3125"/><line style="stroke:#000000;stroke-width:1.0;" x1="208" x2="208" y1="45.2188" y2="64.3125"/><line style="stroke:#000000;stroke-width:1.0;" x1="235" x2="235" y1="45.2188" y2="64.3125"/><line style="stroke:#000000;stroke-width:1.0;" x1="6" x2="6" y1="64.3125" y2="83.4063"/><line style="stroke:#000000;stroke-width:1.0;" x1="176" x2="176" y1="64.3125" y2="83.4063"/><!--MD5=[dfc62f0d5d0ca9d89f31276ff1b88bae]
@startsalt modify_container_inventory_mockup
{
  = Lab, armoire B, conteneur 123
  {#
    **Composant** | **Quantité** | *
    Résistance 50 Ohm | "48" | [<&pencil>]
    Capacité 100 uF | "500" | [<&pencil>]
    ^Résistance 100 kOhm^ | "   " | [<&plus>]
  }

}
@endsalt

PlantUML version 1.2020.22(Sun Dec 06 10:36:27 CET 2020)
(GPL source distribution)
Java Runtime: Java(TM) SE Runtime Environment
JVM: Java HotSpot(TM) 64-Bit Server VM
Default Encoding: Cp1252
Language: fr
Country: FR
--></g></svg>