<?xml version="1.0" encoding="UTF-8" standalone="no"?><svg xmlns="http://www.w3.org/2000/svg" xmlns:xlink="http://www.w3.org/1999/xlink" contentScriptType="application/ecmascript" contentStyleType="text/css" height="111px" preserveAspectRatio="none" style="width:229px;height:111px;" version="1.1" viewBox="0 0 229 111" width="229px" zoomAndPan="magnify"><defs/><g><text fill="#000000" font-family="sans-serif" font-size="16" font-weight="bold" lengthAdjust="spacingAndGlyphs" textLength="147" x="6" y="22.6094">Résistance 50 Ohm</text><text fill="#000000" font-family="sans-serif" font-size="12" font-weight="bold" lengthAdjust="spacingAndGlyphs" textLength="31" x="7" y="41.582">Local</text><text fill="#000000" font-family="sans-serif" font-size="12" font-weight="bold" lengthAdjust="spacingAndGlyphs" textLength="46" x="55" y="41.582">Armoire</text><text fill="#000000" font-family="sans-serif" font-size="12" font-weight="bold" lengthAdjust="spacingAndGlyphs" textLength="59" x="103" y="41.582">Conteneur</text><text fill="#000000" font-family="sans-serif" font-size="12" font-weight="bold" lengthAdjust="spacingAndGlyphs" textLength="48" x="164" y="41.582">Quantité</text><text fill="#000000" font-family="sans-serif" font-size="12" lengthAdjust="spacingAndGlyphs" textLength="21" x="7" y="58.6758">Lab</text><text fill="#000000" font-family="sans-serif" font-size="12" lengthAdjust="spacingAndGlyphs" textLength="8" x="55" y="58.6758">B</text><text fill="#000000" font-family="sans-serif" font-size="12" lengthAdjust="spacingAndGlyphs" textLength="21" x="103" y="58.6758">123</text><text fill="#000000" font-family="sans-serif" font-size="12" lengthAdjust="spacingAndGlyphs" textLength="14" x="167" y="58.6758">48</text><line style="stroke:#000000;stroke-width:1.0;" x1="165" x2="184" y1="61.3125" y2="61.3125"/><line style="stroke:#000000;stroke-width:1.0;" x1="165" x2="165" y1="58.3125" y2="60.3125"/><line style="stroke:#000000;stroke-width:1.0;" x1="184" x2="184" y1="58.3125" y2="60.3125"/><rect fill="#EEEEEE" height="12" rx="5" ry="5" style="stroke:#000000;stroke-width:2.5;" width="20" x="198.5" y="48.7188"/><path d="M210.5,50.7188 L209.5,51.7188 L211.5,53.7188 L212.5,52.7188 L210.5,50.7188 M208.5,52.7188 L204.5,56.7188 L204.5,58.7188 L206.5,58.7188 L210.5,54.7188 L208.5,52.7188 " fill="#000000" style="stroke:;stroke-width:0.0;stroke-dasharray:;"/><text fill="#000000" font-family="sans-serif" font-size="12" lengthAdjust="spacingAndGlyphs" textLength="46" x="7" y="77.7695">Réserve</text><text fill="#000000" font-family="sans-serif" font-size="12" lengthAdjust="spacingAndGlyphs" textLength="9" x="55" y="77.7695">D</text><text fill="#000000" font-family="sans-serif" font-size="12" lengthAdjust="spacingAndGlyphs" textLength="21" x="103" y="77.7695">344</text><text fill="#000000" font-family="sans-serif" font-size="12" lengthAdjust="spacingAndGlyphs" textLength="21" x="167" y="77.7695">500</text><line style="stroke:#000000;stroke-width:1.0;" x1="165" x2="192" y1="80.4063" y2="80.4063"/><line style="stroke:#000000;stroke-width:1.0;" x1="165" x2="165" y1="77.4063" y2="79.4063"/><line style="stroke:#000000;stroke-width:1.0;" x1="192" x2="192" y1="77.4063" y2="79.4063"/><rect fill="#EEEEEE" height="12" rx="5" ry="5" style="stroke:#000000;stroke-width:2.5;" width="20" x="198.5" y="67.8125"/><path d="M210.5,69.8125 L209.5,70.8125 L211.5,72.8125 L212.5,71.8125 L210.5,69.8125 M208.5,71.8125 L204.5,75.8125 L204.5,77.8125 L206.5,77.8125 L210.5,73.8125 L208.5,71.8125 " fill="#000000" style="stroke:;stroke-width:0.0;stroke-dasharray:;"/><rect fill="#EEEEEE" height="18.0938" style="stroke:#000000;stroke-width:1.0;" width="103" x="7" y="84.4063"/><text fill="#000000" font-family="sans-serif" font-size="12" lengthAdjust="spacingAndGlyphs" textLength="61" x="9" y="98.8633">Lab, A, 123</text><line style="stroke:#000000;stroke-width:1.0;" x1="99" x2="99" y1="84.4063" y2="102.5"/><polygon fill="#000000" points="102,90.4063,108,90.4063,105,97.5" style="stroke:#000000;stroke-width:1.0;"/><text fill="#000000" font-family="sans-serif" font-size="12" lengthAdjust="spacingAndGlyphs" textLength="0" x="170" y="96.8633"/><line style="stroke:#000000;stroke-width:1.0;" x1="165" x2="192" y1="99.5" y2="99.5"/><line style="stroke:#000000;stroke-width:1.0;" x1="165" x2="165" y1="96.5" y2="98.5"/><line style="stroke:#000000;stroke-width:1.0;" x1="192" x2="192" y1="96.5" y2="98.5"/><rect fill="#EEEEEE" height="12" rx="5" ry="5" style="stroke:#000000;stroke-width:2.5;" width="20" x="198.5" y="86.9063"/><path d="M207.5,88.9063 L207.5,91.9063 L204.5,91.9063 L204.5,93.9063 L207.5,93.9063 L207.5,96.9063 L209.5,96.9063 L209.5,93.9063 L212.5,93.9063 L212.5,91.9063 L209.5,91.9063 L209.5,88.9063 L207.5,88.9063 " fill="#000000" style="stroke:;stroke-width:0.0;stroke-dasharray:;"/><line style="stroke:#000000;stroke-width:1.0;" x1="6" x2="54" y1="28.125" y2="28.125"/><line style="stroke:#000000;stroke-width:1.0;" x1="195" x2="222" y1="104.5" y2="104.5"/><line style="stroke:#000000;stroke-width:1.0;" x1="54" x2="102" y1="28.125" y2="28.125"/><line style="stroke:#000000;stroke-width:1.0;" x1="102" x2="163" y1="28.125" y2="28.125"/><line style="stroke:#000000;stroke-width:1.0;" x1="163" x2="195" y1="28.125" y2="28.125"/><line style="stroke:#000000;stroke-width:1.0;" x1="195" x2="222" y1="28.125" y2="28.125"/><line style="stroke:#000000;stroke-width:1.0;" x1="6" x2="54" y1="83.4063" y2="83.4063"/><line style="stroke:#000000;stroke-width:1.0;" x1="54" x2="102" y1="83.4063" y2="83.4063"/><line style="stroke:#000000;stroke-width:1.0;" x1="102" x2="163" y1="83.4063" y2="83.4063"/><line style="stroke:#000000;stroke-width:1.0;" x1="163" x2="195" y1="83.4063" y2="83.4063"/><line style="stroke:#000000;stroke-width:1.0;" x1="195" x2="222" y1="83.4063" y2="83.4063"/><line style="stroke:#000000;stroke-width:1.0;" x1="6" x2="54" y1="64.3125" y2="64.3125"/><line style="stroke:#000000;stroke-width:1.0;" x1="54" x2="102" y1="64.3125" y2="64.3125"/><line style="stroke:#000000;stroke-width:1.0;" x1="102" x2="163" y1="64.3125" y2="64.3125"/><line style="stroke:#000000;stroke-width:1.0;" x1="163" x2="195" y1="64.3125" y2="64.3125"/><line style="stroke:#000000;stroke-width:1.0;" x1="195" x2="222" y1="64.3125" y2="64.3125"/><line style="stroke:#000000;stroke-width:1.0;" x1="6" x2="54" y1="45.2188" y2="45.2188"/><line style="stroke:#000000;stroke-width:1.0;" x1="54" x2="102" y1="45.2188" y2="45.2188"/><line style="stroke:#000000;stroke-width:1.0;" x1="102" x2="163" y1="45.2188" y2="45.2188"/><line style="stroke:#000000;stroke-width:1.0;" x1="163" x2="195" y1="45.2188" y2="45.2188"/><line style="stroke:#000000;stroke-width:1.0;" x1="195" x2="222" y1="45.2188" y2="45.2188"/><line style="stroke:#000000;stroke-width:1.0;" x1="6" x2="54" y1="104.5" y2="104.5"/><line style="stroke:#000000;stroke-width:1.0;" x1="54" x2="102" y1="104.5" y2="104.5"/><line style="stroke:#000000;stroke-width:1.0;" x1="102" x2="163" y1="104.5" y2="104.5"/><line style="stroke:#000000;stroke-width:1.0;" x1="163" x2="195" y1="104.5" y2="104.5"/><line style="stroke:#000000;stroke-width:1.0;" x1="6" x2="6" y1="28.125" y2="45.2188"/><line style="stroke:#000000;stroke-width:1.0;" x1="102" x2="102" y1="64.3125" y2="83.4063"/><line style="stroke:#000000;stroke-width:1.0;" x1="54" x2="54" y1="28.125" y2="45.2188"/><line style="stroke:#000000;stroke-width:1.0;" x1="163" x2="163" y1="64.3125" y2="83.4063"/><line style="stroke:#000000;stroke-width:1.0;" x1="102" x2="102" y1="28.125" y2="45.2188"/><line style="stroke:#000000;stroke-width:1.0;" x1="195" x2="195" y1="64.3125" y2="83.4063"/><line style="stroke:#000000;stroke-width:1.0;" x1="222" x2="222" y1="64.3125" y2="83.4063"/><line style="stroke:#000000;stroke-width:1.0;" x1="163" x2="163" y1="28.125" y2="45.2188"/><line style="stroke:#000000;stroke-width:1.0;" x1="222" x2="222" y1="28.125" y2="45.2188"/><line style="stroke:#000000;stroke-width:1.0;" x1="6" x2="6" y1="83.4063" y2="104.5"/><line style="stroke:#000000;stroke-width:1.0;" x1="6" x2="6" y1="45.2188" y2="64.3125"/><line style="stroke:#000000;stroke-width:1.0;" x1="54" x2="54" y1="45.2188" y2="64.3125"/><line style="stroke:#000000;stroke-width:1.0;" x1="163" x2="163" y1="83.4063" y2="104.5"/><line style="stroke:#000000;stroke-width:1.0;" x1="102" x2="102" y1="45.2188" y2="64.3125"/><line style="stroke:#000000;stroke-width:1.0;" x1="195" x2="195" y1="83.4063" y2="104.5"/><line style="stroke:#000000;stroke-width:1.0;" x1="222" x2="222" y1="83.4063" y2="104.5"/><line style="stroke:#000000;stroke-width:1.0;" x1="163" x2="163" y1="45.2188" y2="64.3125"/><line style="stroke:#000000;stroke-width:1.0;" x1="195" x2="195" y1="45.2188" y2="64.3125"/><line style="stroke:#000000;stroke-width:1.0;" x1="222" x2="222" y1="45.2188" y2="64.3125"/><line style="stroke:#000000;stroke-width:1.0;" x1="6" x2="6" y1="64.3125" y2="83.4063"/><line style="stroke:#000000;stroke-width:1.0;" x1="54" x2="54" y1="64.3125" y2="83.4063"/><!--MD5=[ff7072f9fda052b02c42c516962d8c86]
@startsalt modify_item_inventory_mockup
{
  = Résistance 50 Ohm
  {#
    **Local** | **Armoire** | **Conteneur** | **Quantité** | *
    Lab | B | 123 | "48" | [<&pencil>]
    Réserve | D | 344 | "500" | [<&pencil>]
    ^Lab, A, 123^ | * | * | "   " | [<&plus>]
  }

}
@endsalt

PlantUML version 1.2020.22(Sun Dec 06 10:36:27 CET 2020)
(GPL source distribution)
Java Runtime: Java(TM) SE Runtime Environment
JVM: Java HotSpot(TM) 64-Bit Server VM
Default Encoding: Cp1252
Language: fr
Country: FR
--></g></svg>