<?xml version="1.0" encoding="UTF-8" standalone="no"?><svg xmlns="http://www.w3.org/2000/svg" xmlns:xlink="http://www.w3.org/1999/xlink" contentScriptType="application/ecmascript" contentStyleType="text/css" height="395px" preserveAspectRatio="none" style="width:552px;height:395px;" version="1.1" viewBox="0 0 552 395" width="552px" zoomAndPan="magnify"><defs><filter height="300%" id="fr9d046xtmn93" width="300%" x="-1" y="-1"><feGaussianBlur result="blurOut" stdDeviation="2.0"/><feColorMatrix in="blurOut" result="blurOut2" type="matrix" values="0 0 0 0 0 0 0 0 0 0 0 0 0 0 0 0 0 0 .4 0"/><feOffset dx="4.0" dy="4.0" in="blurOut2" result="blurOut3"/><feBlend in="SourceGraphic" in2="blurOut3" mode="normal"/></filter></defs><g><!--MD5=[b582e6ce3c86f1934c1c2f1f310142ca]
class Catalog--><rect codeLine="1" fill="#FEFECE" filter="url(#fr9d046xtmn93)" height="75.6719" id="Catalog" style="stroke:#A80036;stroke-width:1.5;" width="165" x="7" y="142.5"/><ellipse cx="63.75" cy="158.5" fill="#ADD1B2" rx="11" ry="11" style="stroke:#A80036;stroke-width:1.0;"/><path d="M66.5156,154.375 Q66.6719,154.1563 66.8594,154.0469 Q67.0469,153.9375 67.2656,153.9375 Q67.6406,153.9375 67.875,154.1953 Q68.1094,154.4531 68.1094,155.0625 L68.1094,156.5156 Q68.1094,157.125 67.875,157.3906 Q67.6406,157.6563 67.2656,157.6563 Q66.9219,157.6563 66.7188,157.4531 Q66.5156,157.2656 66.4063,156.75 Q66.3594,156.3906 66.1719,156.2031 Q65.8438,155.8281 65.2344,155.6094 Q64.625,155.3906 64,155.3906 Q63.2344,155.3906 62.6016,155.7188 Q61.9688,156.0469 61.4766,156.7969 Q60.9844,157.5469 60.9844,158.5781 L60.9844,159.6719 Q60.9844,160.9063 61.875,161.7266 Q62.7656,162.5469 64.3594,162.5469 Q65.2969,162.5469 65.9531,162.2969 Q66.3438,162.1406 66.7656,161.7031 Q67.0313,161.4375 67.1797,161.3594 Q67.3281,161.2813 67.5313,161.2813 Q67.8594,161.2813 68.1172,161.5391 Q68.375,161.7969 68.375,162.1406 Q68.375,162.4844 68.0313,162.8906 Q67.5313,163.4688 66.7344,163.7969 Q65.6563,164.25 64.3594,164.25 Q62.8438,164.25 61.6406,163.625 Q60.6563,163.125 59.9688,162.0547 Q59.2813,160.9844 59.2813,159.7031 L59.2813,158.5469 Q59.2813,157.2188 59.8984,156.0703 Q60.5156,154.9219 61.6094,154.3047 Q62.7031,153.6875 63.9375,153.6875 Q64.6719,153.6875 65.3203,153.8516 Q65.9688,154.0156 66.5156,154.375 Z " fill="#000000"/><text fill="#000000" font-family="sans-serif" font-size="12" lengthAdjust="spacingAndGlyphs" textLength="43" x="84.25" y="163.4102">Catalog</text><line style="stroke:#A80036;stroke-width:1.5;" x1="8" x2="171" y1="174.5" y2="174.5"/><line style="stroke:#A80036;stroke-width:1.5;" x1="8" x2="171" y1="182.5" y2="182.5"/><ellipse cx="18" cy="193.5" fill="#84BE84" rx="3" ry="3" style="stroke:#038048;stroke-width:1.0;"/><text fill="#000000" font-family="sans-serif" font-size="11" lengthAdjust="spacingAndGlyphs" textLength="73" x="27" y="197.9189">add(item : Item)</text><ellipse cx="18" cy="207.3359" fill="#84BE84" rx="3" ry="3" style="stroke:#038048;stroke-width:1.0;"/><text fill="#000000" font-family="sans-serif" font-size="11" lengthAdjust="spacingAndGlyphs" textLength="139" x="27" y="211.7549">search(word : String) : Item[]</text><!--MD5=[44a1b4afaef76c16e6c9ec4990ad0c8d]
class Item--><rect codeLine="5" fill="#FEFECE" filter="url(#fr9d046xtmn93)" height="61.8359" id="Item" style="stroke:#A80036;stroke-width:1.5;" width="79" x="148" y="306"/><ellipse cx="173.35" cy="322" fill="#ADD1B2" rx="11" ry="11" style="stroke:#A80036;stroke-width:1.0;"/><path d="M176.1156,317.875 Q176.2719,317.6563 176.4594,317.5469 Q176.6469,317.4375 176.8656,317.4375 Q177.2406,317.4375 177.475,317.6953 Q177.7094,317.9531 177.7094,318.5625 L177.7094,320.0156 Q177.7094,320.625 177.475,320.8906 Q177.2406,321.1563 176.8656,321.1563 Q176.5219,321.1563 176.3188,320.9531 Q176.1156,320.7656 176.0063,320.25 Q175.9594,319.8906 175.7719,319.7031 Q175.4438,319.3281 174.8344,319.1094 Q174.225,318.8906 173.6,318.8906 Q172.8344,318.8906 172.2016,319.2188 Q171.5688,319.5469 171.0766,320.2969 Q170.5844,321.0469 170.5844,322.0781 L170.5844,323.1719 Q170.5844,324.4063 171.475,325.2266 Q172.3656,326.0469 173.9594,326.0469 Q174.8969,326.0469 175.5531,325.7969 Q175.9438,325.6406 176.3656,325.2031 Q176.6313,324.9375 176.7797,324.8594 Q176.9281,324.7813 177.1313,324.7813 Q177.4594,324.7813 177.7172,325.0391 Q177.975,325.2969 177.975,325.6406 Q177.975,325.9844 177.6313,326.3906 Q177.1313,326.9688 176.3344,327.2969 Q175.2563,327.75 173.9594,327.75 Q172.4438,327.75 171.2406,327.125 Q170.2563,326.625 169.5688,325.5547 Q168.8813,324.4844 168.8813,323.2031 L168.8813,322.0469 Q168.8813,320.7188 169.4984,319.5703 Q170.1156,318.4219 171.2094,317.8047 Q172.3031,317.1875 173.5375,317.1875 Q174.2719,317.1875 174.9203,317.3516 Q175.5688,317.5156 176.1156,317.875 Z " fill="#000000"/><text fill="#000000" font-family="sans-serif" font-size="12" lengthAdjust="spacingAndGlyphs" textLength="24" x="189.65" y="326.9102">Item</text><line style="stroke:#A80036;stroke-width:1.5;" x1="149" x2="226" y1="338" y2="338"/><rect fill="none" height="6" style="stroke:#C82930;stroke-width:1.0;" width="6" x="156" y="346"/><text fill="#000000" font-family="sans-serif" font-size="11" lengthAdjust="spacingAndGlyphs" textLength="53" x="168" y="353.4189">description</text><line style="stroke:#A80036;stroke-width:1.5;" x1="149" x2="226" y1="359.8359" y2="359.8359"/><!--MD5=[71c979fac2fbbf05f428f689863a8ca0]
class ContainerList--><rect codeLine="8" fill="#FEFECE" filter="url(#fr9d046xtmn93)" height="103.3438" id="ContainerList" style="stroke:#A80036;stroke-width:1.5;" width="192" x="346.5" y="129"/><ellipse cx="401.25" cy="145" fill="#ADD1B2" rx="11" ry="11" style="stroke:#A80036;stroke-width:1.0;"/><path d="M404.0156,140.875 Q404.1719,140.6563 404.3594,140.5469 Q404.5469,140.4375 404.7656,140.4375 Q405.1406,140.4375 405.375,140.6953 Q405.6094,140.9531 405.6094,141.5625 L405.6094,143.0156 Q405.6094,143.625 405.375,143.8906 Q405.1406,144.1563 404.7656,144.1563 Q404.4219,144.1563 404.2188,143.9531 Q404.0156,143.7656 403.9063,143.25 Q403.8594,142.8906 403.6719,142.7031 Q403.3438,142.3281 402.7344,142.1094 Q402.125,141.8906 401.5,141.8906 Q400.7344,141.8906 400.1016,142.2188 Q399.4688,142.5469 398.9766,143.2969 Q398.4844,144.0469 398.4844,145.0781 L398.4844,146.1719 Q398.4844,147.4063 399.375,148.2266 Q400.2656,149.0469 401.8594,149.0469 Q402.7969,149.0469 403.4531,148.7969 Q403.8438,148.6406 404.2656,148.2031 Q404.5313,147.9375 404.6797,147.8594 Q404.8281,147.7813 405.0313,147.7813 Q405.3594,147.7813 405.6172,148.0391 Q405.875,148.2969 405.875,148.6406 Q405.875,148.9844 405.5313,149.3906 Q405.0313,149.9688 404.2344,150.2969 Q403.1563,150.75 401.8594,150.75 Q400.3438,150.75 399.1406,150.125 Q398.1563,149.625 397.4688,148.5547 Q396.7813,147.4844 396.7813,146.2031 L396.7813,145.0469 Q396.7813,143.7188 397.3984,142.5703 Q398.0156,141.4219 399.1094,140.8047 Q400.2031,140.1875 401.4375,140.1875 Q402.1719,140.1875 402.8203,140.3516 Q403.4688,140.5156 404.0156,140.875 Z " fill="#000000"/><text fill="#000000" font-family="sans-serif" font-size="12" lengthAdjust="spacingAndGlyphs" textLength="74" x="421.75" y="149.9102">ContainerList</text><line style="stroke:#A80036;stroke-width:1.5;" x1="347.5" x2="537.5" y1="161" y2="161"/><line style="stroke:#A80036;stroke-width:1.5;" x1="347.5" x2="537.5" y1="169" y2="169"/><ellipse cx="357.5" cy="180" fill="#84BE84" rx="3" ry="3" style="stroke:#038048;stroke-width:1.0;"/><text fill="#000000" font-family="sans-serif" font-size="11" lengthAdjust="spacingAndGlyphs" textLength="126" x="366.5" y="184.4189">add(container : Container)</text><ellipse cx="357.5" cy="193.8359" fill="#84BE84" rx="3" ry="3" style="stroke:#038048;stroke-width:1.0;"/><text fill="#000000" font-family="sans-serif" font-size="11" lengthAdjust="spacingAndGlyphs" textLength="125" x="366.5" y="198.2549">getAllLocations() : String[]</text><ellipse cx="357.5" cy="207.6719" fill="#84BE84" rx="3" ry="3" style="stroke:#038048;stroke-width:1.0;"/><text fill="#000000" font-family="sans-serif" font-size="11" lengthAdjust="spacingAndGlyphs" textLength="121" x="366.5" y="212.0908">getAllDrawers() : String[]</text><ellipse cx="357.5" cy="221.5078" fill="#84BE84" rx="3" ry="3" style="stroke:#038048;stroke-width:1.0;"/><text fill="#000000" font-family="sans-serif" font-size="11" lengthAdjust="spacingAndGlyphs" textLength="166" x="366.5" y="225.9268">search(word : String) : Container[]</text><!--MD5=[e9a58730c562b34349daa605d1ed6662]
class Container--><rect codeLine="14" fill="#FEFECE" filter="url(#fr9d046xtmn93)" height="89.5078" id="Container" style="stroke:#A80036;stroke-width:1.5;" width="86" x="288.5" y="292"/><ellipse cx="303.5" cy="308" fill="#ADD1B2" rx="11" ry="11" style="stroke:#A80036;stroke-width:1.0;"/><path d="M306.2656,303.875 Q306.4219,303.6563 306.6094,303.5469 Q306.7969,303.4375 307.0156,303.4375 Q307.3906,303.4375 307.625,303.6953 Q307.8594,303.9531 307.8594,304.5625 L307.8594,306.0156 Q307.8594,306.625 307.625,306.8906 Q307.3906,307.1563 307.0156,307.1563 Q306.6719,307.1563 306.4688,306.9531 Q306.2656,306.7656 306.1563,306.25 Q306.1094,305.8906 305.9219,305.7031 Q305.5938,305.3281 304.9844,305.1094 Q304.375,304.8906 303.75,304.8906 Q302.9844,304.8906 302.3516,305.2188 Q301.7188,305.5469 301.2266,306.2969 Q300.7344,307.0469 300.7344,308.0781 L300.7344,309.1719 Q300.7344,310.4063 301.625,311.2266 Q302.5156,312.0469 304.1094,312.0469 Q305.0469,312.0469 305.7031,311.7969 Q306.0938,311.6406 306.5156,311.2031 Q306.7813,310.9375 306.9297,310.8594 Q307.0781,310.7813 307.2813,310.7813 Q307.6094,310.7813 307.8672,311.0391 Q308.125,311.2969 308.125,311.6406 Q308.125,311.9844 307.7813,312.3906 Q307.2813,312.9688 306.4844,313.2969 Q305.4063,313.75 304.1094,313.75 Q302.5938,313.75 301.3906,313.125 Q300.4063,312.625 299.7188,311.5547 Q299.0313,310.4844 299.0313,309.2031 L299.0313,308.0469 Q299.0313,306.7188 299.6484,305.5703 Q300.2656,304.4219 301.3594,303.8047 Q302.4531,303.1875 303.6875,303.1875 Q304.4219,303.1875 305.0703,303.3516 Q305.7188,303.5156 306.2656,303.875 Z " fill="#000000"/><text fill="#000000" font-family="sans-serif" font-size="12" lengthAdjust="spacingAndGlyphs" textLength="54" x="317.5" y="312.9102">Container</text><line style="stroke:#A80036;stroke-width:1.5;" x1="289.5" x2="373.5" y1="324" y2="324"/><rect fill="none" height="6" style="stroke:#C82930;stroke-width:1.0;" width="6" x="296.5" y="332"/><text fill="#000000" font-family="sans-serif" font-size="11" lengthAdjust="spacingAndGlyphs" textLength="37" x="308.5" y="339.4189">location</text><rect fill="none" height="6" style="stroke:#C82930;stroke-width:1.0;" width="6" x="296.5" y="345.8359"/><text fill="#000000" font-family="sans-serif" font-size="11" lengthAdjust="spacingAndGlyphs" textLength="36" x="308.5" y="353.2549">drawer</text><rect fill="none" height="6" style="stroke:#C82930;stroke-width:1.0;" width="6" x="296.5" y="359.6719"/><text fill="#000000" font-family="sans-serif" font-size="11" lengthAdjust="spacingAndGlyphs" textLength="8" x="308.5" y="367.0908">id</text><line style="stroke:#A80036;stroke-width:1.5;" x1="289.5" x2="373.5" y1="373.5078" y2="373.5078"/><!--MD5=[ee084734eb3a5ffad99a0de9980f769b]
class Inventory--><rect codeLine="19" fill="#FEFECE" filter="url(#fr9d046xtmn93)" height="61.8359" id="Inventory" style="stroke:#A80036;stroke-width:1.5;" width="309" x="105" y="7"/><ellipse cx="231.25" cy="23" fill="#ADD1B2" rx="11" ry="11" style="stroke:#A80036;stroke-width:1.0;"/><path d="M234.0156,18.875 Q234.1719,18.6563 234.3594,18.5469 Q234.5469,18.4375 234.7656,18.4375 Q235.1406,18.4375 235.375,18.6953 Q235.6094,18.9531 235.6094,19.5625 L235.6094,21.0156 Q235.6094,21.625 235.375,21.8906 Q235.1406,22.1563 234.7656,22.1563 Q234.4219,22.1563 234.2188,21.9531 Q234.0156,21.7656 233.9063,21.25 Q233.8594,20.8906 233.6719,20.7031 Q233.3438,20.3281 232.7344,20.1094 Q232.125,19.8906 231.5,19.8906 Q230.7344,19.8906 230.1016,20.2188 Q229.4688,20.5469 228.9766,21.2969 Q228.4844,22.0469 228.4844,23.0781 L228.4844,24.1719 Q228.4844,25.4063 229.375,26.2266 Q230.2656,27.0469 231.8594,27.0469 Q232.7969,27.0469 233.4531,26.7969 Q233.8438,26.6406 234.2656,26.2031 Q234.5313,25.9375 234.6797,25.8594 Q234.8281,25.7813 235.0313,25.7813 Q235.3594,25.7813 235.6172,26.0391 Q235.875,26.2969 235.875,26.6406 Q235.875,26.9844 235.5313,27.3906 Q235.0313,27.9688 234.2344,28.2969 Q233.1563,28.75 231.8594,28.75 Q230.3438,28.75 229.1406,28.125 Q228.1563,27.625 227.4688,26.5547 Q226.7813,25.4844 226.7813,24.2031 L226.7813,23.0469 Q226.7813,21.7188 227.3984,20.5703 Q228.0156,19.4219 229.1094,18.8047 Q230.2031,18.1875 231.4375,18.1875 Q232.1719,18.1875 232.8203,18.3516 Q233.4688,18.5156 234.0156,18.875 Z " fill="#000000"/><text fill="#000000" font-family="sans-serif" font-size="12" lengthAdjust="spacingAndGlyphs" textLength="48" x="251.75" y="27.9102">Inventory</text><line style="stroke:#A80036;stroke-width:1.5;" x1="106" x2="413" y1="39" y2="39"/><line style="stroke:#A80036;stroke-width:1.5;" x1="106" x2="413" y1="47" y2="47"/><ellipse cx="116" cy="58" fill="#84BE84" rx="3" ry="3" style="stroke:#038048;stroke-width:1.0;"/><text fill="#000000" font-family="sans-serif" font-size="11" lengthAdjust="spacingAndGlyphs" textLength="283" x="125" y="62.4189">modify(item : Item, container : Container, quantity : Number)</text><!--MD5=[5dd0a087f358637a9504e61784103faf]
class InventoryLine--><rect codeLine="22" fill="#FEFECE" filter="url(#fr9d046xtmn93)" height="61.8359" id="InventoryLine" style="stroke:#A80036;stroke-width:1.5;" width="104" x="207.5" y="149.5"/><ellipse cx="222.5" cy="165.5" fill="#ADD1B2" rx="11" ry="11" style="stroke:#A80036;stroke-width:1.0;"/><path d="M225.2656,161.375 Q225.4219,161.1563 225.6094,161.0469 Q225.7969,160.9375 226.0156,160.9375 Q226.3906,160.9375 226.625,161.1953 Q226.8594,161.4531 226.8594,162.0625 L226.8594,163.5156 Q226.8594,164.125 226.625,164.3906 Q226.3906,164.6563 226.0156,164.6563 Q225.6719,164.6563 225.4688,164.4531 Q225.2656,164.2656 225.1563,163.75 Q225.1094,163.3906 224.9219,163.2031 Q224.5938,162.8281 223.9844,162.6094 Q223.375,162.3906 222.75,162.3906 Q221.9844,162.3906 221.3516,162.7188 Q220.7188,163.0469 220.2266,163.7969 Q219.7344,164.5469 219.7344,165.5781 L219.7344,166.6719 Q219.7344,167.9063 220.625,168.7266 Q221.5156,169.5469 223.1094,169.5469 Q224.0469,169.5469 224.7031,169.2969 Q225.0938,169.1406 225.5156,168.7031 Q225.7813,168.4375 225.9297,168.3594 Q226.0781,168.2813 226.2813,168.2813 Q226.6094,168.2813 226.8672,168.5391 Q227.125,168.7969 227.125,169.1406 Q227.125,169.4844 226.7813,169.8906 Q226.2813,170.4688 225.4844,170.7969 Q224.4063,171.25 223.1094,171.25 Q221.5938,171.25 220.3906,170.625 Q219.4063,170.125 218.7188,169.0547 Q218.0313,167.9844 218.0313,166.7031 L218.0313,165.5469 Q218.0313,164.2188 218.6484,163.0703 Q219.2656,161.9219 220.3594,161.3047 Q221.4531,160.6875 222.6875,160.6875 Q223.4219,160.6875 224.0703,160.8516 Q224.7188,161.0156 225.2656,161.375 Z " fill="#000000"/><text fill="#000000" font-family="sans-serif" font-size="12" lengthAdjust="spacingAndGlyphs" textLength="72" x="236.5" y="170.4102">InventoryLine</text><line style="stroke:#A80036;stroke-width:1.5;" x1="208.5" x2="310.5" y1="181.5" y2="181.5"/><rect fill="none" height="6" style="stroke:#C82930;stroke-width:1.0;" width="6" x="215.5" y="189.5"/><text fill="#000000" font-family="sans-serif" font-size="11" lengthAdjust="spacingAndGlyphs" textLength="38" x="227.5" y="196.9189">quantity</text><line style="stroke:#A80036;stroke-width:1.5;" x1="208.5" x2="310.5" y1="203.3359" y2="203.3359"/><!--MD5=[33e99256a52c712af58017d1dbd30d35]
link Catalog to Item--><path codeLine="26" d="M119.3903,228.648 C119.3903,228.648 148.49,274.51 161.19,294.52 " fill="none" id="Catalog-Item" style="stroke:#A80036;stroke-width:1.0;"/><polygon fill="#A80036" points="168.33,305.77,166.8941,296.0264,165.6549,301.5458,160.1354,300.3066,168.33,305.77" style="stroke:#A80036;stroke-width:1.0;"/><line style="stroke:#A80036;stroke-width:1.0;" x1="165.6549" x2="161.365" y1="301.5458" y2="294.795"/><polygon fill="#A80036" points="112.97,218.51,112.8008,225.7191,119.3903,228.648,119.5595,221.4389,112.97,218.51" style="stroke:#A80036;stroke-width:1.0;"/><!--MD5=[cee1ffc394b4ae6c58dd2fb5d99edbe1]
link ContainerList to Container--><path codeLine="27" d="M399.1477,241.8352 C399.1477,241.8352 379.87,268.67 370.93,281.11 " fill="none" id="ContainerList-Container" style="stroke:#A80036;stroke-width:1.0;"/><polygon fill="#A80036" points="363.26,291.79,371.7601,286.8152,366.1776,287.7295,365.2633,282.147,363.26,291.79" style="stroke:#A80036;stroke-width:1.0;"/><line style="stroke:#A80036;stroke-width:1.0;" x1="366.1776" x2="370.845" y1="287.7295" y2="281.235"/><polygon fill="#A80036" points="406.15,232.09,399.4005,234.6285,399.1477,241.8352,405.8973,239.2967,406.15,232.09" style="stroke:#A80036;stroke-width:1.0;"/><!--MD5=[d693699771cdcc01344d5cce0a99f926]
link Inventory to InventoryLine--><path codeLine="28" d="M259.5,81.14 C259.5,81.14 259.5,119.19 259.5,136.32 " fill="none" id="Inventory-InventoryLine" style="stroke:#A80036;stroke-width:1.0;"/><polygon fill="#A80036" points="259.5,149.41,263.5,140.41,259.5,144.41,255.5,140.41,259.5,149.41" style="stroke:#A80036;stroke-width:1.0;"/><line style="stroke:#A80036;stroke-width:1.0;" x1="259.5" x2="259.5" y1="144.41" y2="136.41"/><polygon fill="#A80036" points="259.5,69.14,255.5,75.14,259.5,81.14,263.5,75.14,259.5,69.14" style="stroke:#A80036;stroke-width:1.0;"/><!--MD5=[562204adf8454c9db6c8db6755a14385]
link InventoryLine to Container--><path codeLine="29" d="M273.55,211.66 C283.57,233.15 297.25,262.51 308.81,287.3 " fill="none" id="InventoryLine-to-Container" style="stroke:#A80036;stroke-width:1.0;"/><polygon fill="#A80036" points="310.94,291.88,310.7571,282.0328,308.8248,287.3494,303.5082,285.4172,310.94,291.88" style="stroke:#A80036;stroke-width:1.0;"/><!--MD5=[f1e8ccba03dd651a4ad89a9f88186407]
link InventoryLine to Item--><path codeLine="30" d="M245.45,211.66 C233.45,237.39 216.21,274.4 203.65,301.35 " fill="none" id="InventoryLine-to-Item" style="stroke:#A80036;stroke-width:1.0;"/><polygon fill="#A80036" points="201.52,305.92,208.944,299.4482,203.6297,301.3869,201.6911,296.0726,201.52,305.92" style="stroke:#A80036;stroke-width:1.0;"/><!--MD5=[10cefacc48a550352d7304c9d5156a09]
@startuml classes
class Catalog {
  + add(item : Item)
  + search(word : String) : Item[]
}
class Item {
  -description
}
class ContainerList {
  + add(container : Container)
  + getAllLocations() : String[]
  + getAllDrawers() : String[]
  + search(word : String) : Container[]
}
class Container {
  -location
  -drawer
  -id
}
class Inventory {
  + modify(item : Item, container : Container, quantity : Number)
}
class InventoryLine {
  -quantity
}

Catalog *- -> Item
ContainerList *- -> Container
Inventory *- -> InventoryLine
InventoryLine - -> Container
InventoryLine - -> Item
@enduml

PlantUML version 1.2020.22(Sun Dec 06 10:36:27 CET 2020)
(GPL source distribution)
Java Runtime: Java(TM) SE Runtime Environment
JVM: Java HotSpot(TM) 64-Bit Server VM
Default Encoding: Cp1252
Language: fr
Country: FR
--></g></svg>