<?xml version="1.0" encoding="UTF-8" standalone="no"?><svg xmlns="http://www.w3.org/2000/svg" xmlns:xlink="http://www.w3.org/1999/xlink" contentScriptType="application/ecmascript" contentStyleType="text/css" height="368px" preserveAspectRatio="none" style="width:512px;height:368px;" version="1.1" viewBox="0 0 512 368" width="512px" zoomAndPan="magnify"><defs><filter height="300%" id="f13hi2c062s09e" width="300%" x="-1" y="-1"><feGaussianBlur result="blurOut" stdDeviation="2.0"/><feColorMatrix in="blurOut" result="blurOut2" type="matrix" values="0 0 0 0 0 0 0 0 0 0 0 0 0 0 0 0 0 0 .4 0"/><feOffset dx="4.0" dy="4.0" in="blurOut2" result="blurOut3"/><feBlend in="SourceGraphic" in2="blurOut3" mode="normal"/></filter></defs><g><!--MD5=[b582e6ce3c86f1934c1c2f1f310142ca]
class Catalog--><rect codeLine="1" fill="#FEFECE" filter="url(#f13hi2c062s09e)" height="75.6719" id="Catalog" style="stroke:#A80036;stroke-width:1.5;" width="165" x="7" y="129"/><ellipse cx="63.75" cy="145" fill="#ADD1B2" rx="11" ry="11" style="stroke:#A80036;stroke-width:1.0;"/><path d="M66.5156,140.875 Q66.6719,140.6563 66.8594,140.5469 Q67.0469,140.4375 67.2656,140.4375 Q67.6406,140.4375 67.875,140.6953 Q68.1094,140.9531 68.1094,141.5625 L68.1094,143.0156 Q68.1094,143.625 67.875,143.8906 Q67.6406,144.1563 67.2656,144.1563 Q66.9219,144.1563 66.7188,143.9531 Q66.5156,143.7656 66.4063,143.25 Q66.3594,142.8906 66.1719,142.7031 Q65.8438,142.3281 65.2344,142.1094 Q64.625,141.8906 64,141.8906 Q63.2344,141.8906 62.6016,142.2188 Q61.9688,142.5469 61.4766,143.2969 Q60.9844,144.0469 60.9844,145.0781 L60.9844,146.1719 Q60.9844,147.4063 61.875,148.2266 Q62.7656,149.0469 64.3594,149.0469 Q65.2969,149.0469 65.9531,148.7969 Q66.3438,148.6406 66.7656,148.2031 Q67.0313,147.9375 67.1797,147.8594 Q67.3281,147.7813 67.5313,147.7813 Q67.8594,147.7813 68.1172,148.0391 Q68.375,148.2969 68.375,148.6406 Q68.375,148.9844 68.0313,149.3906 Q67.5313,149.9688 66.7344,150.2969 Q65.6563,150.75 64.3594,150.75 Q62.8438,150.75 61.6406,150.125 Q60.6563,149.625 59.9688,148.5547 Q59.2813,147.4844 59.2813,146.2031 L59.2813,145.0469 Q59.2813,143.7188 59.8984,142.5703 Q60.5156,141.4219 61.6094,140.8047 Q62.7031,140.1875 63.9375,140.1875 Q64.6719,140.1875 65.3203,140.3516 Q65.9688,140.5156 66.5156,140.875 Z " fill="#000000"/><text fill="#000000" font-family="sans-serif" font-size="12" lengthAdjust="spacingAndGlyphs" textLength="43" x="84.25" y="149.9102">Catalog</text><line style="stroke:#A80036;stroke-width:1.5;" x1="8" x2="171" y1="161" y2="161"/><line style="stroke:#A80036;stroke-width:1.5;" x1="8" x2="171" y1="169" y2="169"/><ellipse cx="18" cy="180" fill="#84BE84" rx="3" ry="3" style="stroke:#038048;stroke-width:1.0;"/><text fill="#000000" font-family="sans-serif" font-size="11" lengthAdjust="spacingAndGlyphs" textLength="73" x="27" y="184.4189">add(item : Item)</text><ellipse cx="18" cy="193.8359" fill="#84BE84" rx="3" ry="3" style="stroke:#038048;stroke-width:1.0;"/><text fill="#000000" font-family="sans-serif" font-size="11" lengthAdjust="spacingAndGlyphs" textLength="139" x="27" y="198.2549">search(word : String) : Item[]</text><!--MD5=[44a1b4afaef76c16e6c9ec4990ad0c8d]
class Item--><rect codeLine="5" fill="#FEFECE" filter="url(#f13hi2c062s09e)" height="61.8359" id="Item" style="stroke:#A80036;stroke-width:1.5;" width="79" x="148" y="279"/><ellipse cx="173.35" cy="295" fill="#ADD1B2" rx="11" ry="11" style="stroke:#A80036;stroke-width:1.0;"/><path d="M176.1156,290.875 Q176.2719,290.6563 176.4594,290.5469 Q176.6469,290.4375 176.8656,290.4375 Q177.2406,290.4375 177.475,290.6953 Q177.7094,290.9531 177.7094,291.5625 L177.7094,293.0156 Q177.7094,293.625 177.475,293.8906 Q177.2406,294.1563 176.8656,294.1563 Q176.5219,294.1563 176.3188,293.9531 Q176.1156,293.7656 176.0063,293.25 Q175.9594,292.8906 175.7719,292.7031 Q175.4438,292.3281 174.8344,292.1094 Q174.225,291.8906 173.6,291.8906 Q172.8344,291.8906 172.2016,292.2188 Q171.5688,292.5469 171.0766,293.2969 Q170.5844,294.0469 170.5844,295.0781 L170.5844,296.1719 Q170.5844,297.4063 171.475,298.2266 Q172.3656,299.0469 173.9594,299.0469 Q174.8969,299.0469 175.5531,298.7969 Q175.9438,298.6406 176.3656,298.2031 Q176.6313,297.9375 176.7797,297.8594 Q176.9281,297.7813 177.1313,297.7813 Q177.4594,297.7813 177.7172,298.0391 Q177.975,298.2969 177.975,298.6406 Q177.975,298.9844 177.6313,299.3906 Q177.1313,299.9688 176.3344,300.2969 Q175.2563,300.75 173.9594,300.75 Q172.4438,300.75 171.2406,300.125 Q170.2563,299.625 169.5688,298.5547 Q168.8813,297.4844 168.8813,296.2031 L168.8813,295.0469 Q168.8813,293.7188 169.4984,292.5703 Q170.1156,291.4219 171.2094,290.8047 Q172.3031,290.1875 173.5375,290.1875 Q174.2719,290.1875 174.9203,290.3516 Q175.5688,290.5156 176.1156,290.875 Z " fill="#000000"/><text fill="#000000" font-family="sans-serif" font-size="12" lengthAdjust="spacingAndGlyphs" textLength="24" x="189.65" y="299.9102">Item</text><line style="stroke:#A80036;stroke-width:1.5;" x1="149" x2="226" y1="311" y2="311"/><rect fill="none" height="6" style="stroke:#C82930;stroke-width:1.0;" width="6" x="156" y="319"/><text fill="#000000" font-family="sans-serif" font-size="11" lengthAdjust="spacingAndGlyphs" textLength="53" x="168" y="326.4189">description</text><line style="stroke:#A80036;stroke-width:1.5;" x1="149" x2="226" y1="332.8359" y2="332.8359"/><!--MD5=[71c979fac2fbbf05f428f689863a8ca0]
class ContainerList--><rect codeLine="8" fill="#FEFECE" filter="url(#f13hi2c062s09e)" height="61.8359" id="ContainerList" style="stroke:#A80036;stroke-width:1.5;" width="152" x="346.5" y="136"/><ellipse cx="382.2" cy="152" fill="#ADD1B2" rx="11" ry="11" style="stroke:#A80036;stroke-width:1.0;"/><path d="M384.9656,147.875 Q385.1219,147.6563 385.3094,147.5469 Q385.4969,147.4375 385.7156,147.4375 Q386.0906,147.4375 386.325,147.6953 Q386.5594,147.9531 386.5594,148.5625 L386.5594,150.0156 Q386.5594,150.625 386.325,150.8906 Q386.0906,151.1563 385.7156,151.1563 Q385.3719,151.1563 385.1688,150.9531 Q384.9656,150.7656 384.8563,150.25 Q384.8094,149.8906 384.6219,149.7031 Q384.2938,149.3281 383.6844,149.1094 Q383.075,148.8906 382.45,148.8906 Q381.6844,148.8906 381.0516,149.2188 Q380.4188,149.5469 379.9266,150.2969 Q379.4344,151.0469 379.4344,152.0781 L379.4344,153.1719 Q379.4344,154.4063 380.325,155.2266 Q381.2156,156.0469 382.8094,156.0469 Q383.7469,156.0469 384.4031,155.7969 Q384.7938,155.6406 385.2156,155.2031 Q385.4813,154.9375 385.6297,154.8594 Q385.7781,154.7813 385.9813,154.7813 Q386.3094,154.7813 386.5672,155.0391 Q386.825,155.2969 386.825,155.6406 Q386.825,155.9844 386.4813,156.3906 Q385.9813,156.9688 385.1844,157.2969 Q384.1063,157.75 382.8094,157.75 Q381.2938,157.75 380.0906,157.125 Q379.1063,156.625 378.4188,155.5547 Q377.7313,154.4844 377.7313,153.2031 L377.7313,152.0469 Q377.7313,150.7188 378.3484,149.5703 Q378.9656,148.4219 380.0594,147.8047 Q381.1531,147.1875 382.3875,147.1875 Q383.1219,147.1875 383.7703,147.3516 Q384.4188,147.5156 384.9656,147.875 Z " fill="#000000"/><text fill="#000000" font-family="sans-serif" font-size="12" lengthAdjust="spacingAndGlyphs" textLength="74" x="400.8" y="156.9102">ContainerList</text><line style="stroke:#A80036;stroke-width:1.5;" x1="347.5" x2="497.5" y1="168" y2="168"/><line style="stroke:#A80036;stroke-width:1.5;" x1="347.5" x2="497.5" y1="176" y2="176"/><ellipse cx="357.5" cy="187" fill="#84BE84" rx="3" ry="3" style="stroke:#038048;stroke-width:1.0;"/><text fill="#000000" font-family="sans-serif" font-size="11" lengthAdjust="spacingAndGlyphs" textLength="126" x="366.5" y="191.4189">add(container : Container)</text><!--MD5=[e9a58730c562b34349daa605d1ed6662]
class Container--><rect codeLine="11" fill="#FEFECE" filter="url(#f13hi2c062s09e)" height="89.5078" id="Container" style="stroke:#A80036;stroke-width:1.5;" width="86" x="288.5" y="265"/><ellipse cx="303.5" cy="281" fill="#ADD1B2" rx="11" ry="11" style="stroke:#A80036;stroke-width:1.0;"/><path d="M306.2656,276.875 Q306.4219,276.6563 306.6094,276.5469 Q306.7969,276.4375 307.0156,276.4375 Q307.3906,276.4375 307.625,276.6953 Q307.8594,276.9531 307.8594,277.5625 L307.8594,279.0156 Q307.8594,279.625 307.625,279.8906 Q307.3906,280.1563 307.0156,280.1563 Q306.6719,280.1563 306.4688,279.9531 Q306.2656,279.7656 306.1563,279.25 Q306.1094,278.8906 305.9219,278.7031 Q305.5938,278.3281 304.9844,278.1094 Q304.375,277.8906 303.75,277.8906 Q302.9844,277.8906 302.3516,278.2188 Q301.7188,278.5469 301.2266,279.2969 Q300.7344,280.0469 300.7344,281.0781 L300.7344,282.1719 Q300.7344,283.4063 301.625,284.2266 Q302.5156,285.0469 304.1094,285.0469 Q305.0469,285.0469 305.7031,284.7969 Q306.0938,284.6406 306.5156,284.2031 Q306.7813,283.9375 306.9297,283.8594 Q307.0781,283.7813 307.2813,283.7813 Q307.6094,283.7813 307.8672,284.0391 Q308.125,284.2969 308.125,284.6406 Q308.125,284.9844 307.7813,285.3906 Q307.2813,285.9688 306.4844,286.2969 Q305.4063,286.75 304.1094,286.75 Q302.5938,286.75 301.3906,286.125 Q300.4063,285.625 299.7188,284.5547 Q299.0313,283.4844 299.0313,282.2031 L299.0313,281.0469 Q299.0313,279.7188 299.6484,278.5703 Q300.2656,277.4219 301.3594,276.8047 Q302.4531,276.1875 303.6875,276.1875 Q304.4219,276.1875 305.0703,276.3516 Q305.7188,276.5156 306.2656,276.875 Z " fill="#000000"/><text fill="#000000" font-family="sans-serif" font-size="12" lengthAdjust="spacingAndGlyphs" textLength="54" x="317.5" y="285.9102">Container</text><line style="stroke:#A80036;stroke-width:1.5;" x1="289.5" x2="373.5" y1="297" y2="297"/><rect fill="none" height="6" style="stroke:#C82930;stroke-width:1.0;" width="6" x="296.5" y="305"/><text fill="#000000" font-family="sans-serif" font-size="11" lengthAdjust="spacingAndGlyphs" textLength="37" x="308.5" y="312.4189">location</text><rect fill="none" height="6" style="stroke:#C82930;stroke-width:1.0;" width="6" x="296.5" y="318.8359"/><text fill="#000000" font-family="sans-serif" font-size="11" lengthAdjust="spacingAndGlyphs" textLength="36" x="308.5" y="326.2549">drawer</text><rect fill="none" height="6" style="stroke:#C82930;stroke-width:1.0;" width="6" x="296.5" y="332.6719"/><text fill="#000000" font-family="sans-serif" font-size="11" lengthAdjust="spacingAndGlyphs" textLength="8" x="308.5" y="340.0908">id</text><line style="stroke:#A80036;stroke-width:1.5;" x1="289.5" x2="373.5" y1="346.5078" y2="346.5078"/><!--MD5=[ee084734eb3a5ffad99a0de9980f769b]
class Inventory--><rect codeLine="16" fill="#FEFECE" filter="url(#f13hi2c062s09e)" height="61.8359" id="Inventory" style="stroke:#A80036;stroke-width:1.5;" width="309" x="105" y="7"/><ellipse cx="231.25" cy="23" fill="#ADD1B2" rx="11" ry="11" style="stroke:#A80036;stroke-width:1.0;"/><path d="M234.0156,18.875 Q234.1719,18.6563 234.3594,18.5469 Q234.5469,18.4375 234.7656,18.4375 Q235.1406,18.4375 235.375,18.6953 Q235.6094,18.9531 235.6094,19.5625 L235.6094,21.0156 Q235.6094,21.625 235.375,21.8906 Q235.1406,22.1563 234.7656,22.1563 Q234.4219,22.1563 234.2188,21.9531 Q234.0156,21.7656 233.9063,21.25 Q233.8594,20.8906 233.6719,20.7031 Q233.3438,20.3281 232.7344,20.1094 Q232.125,19.8906 231.5,19.8906 Q230.7344,19.8906 230.1016,20.2188 Q229.4688,20.5469 228.9766,21.2969 Q228.4844,22.0469 228.4844,23.0781 L228.4844,24.1719 Q228.4844,25.4063 229.375,26.2266 Q230.2656,27.0469 231.8594,27.0469 Q232.7969,27.0469 233.4531,26.7969 Q233.8438,26.6406 234.2656,26.2031 Q234.5313,25.9375 234.6797,25.8594 Q234.8281,25.7813 235.0313,25.7813 Q235.3594,25.7813 235.6172,26.0391 Q235.875,26.2969 235.875,26.6406 Q235.875,26.9844 235.5313,27.3906 Q235.0313,27.9688 234.2344,28.2969 Q233.1563,28.75 231.8594,28.75 Q230.3438,28.75 229.1406,28.125 Q228.1563,27.625 227.4688,26.5547 Q226.7813,25.4844 226.7813,24.2031 L226.7813,23.0469 Q226.7813,21.7188 227.3984,20.5703 Q228.0156,19.4219 229.1094,18.8047 Q230.2031,18.1875 231.4375,18.1875 Q232.1719,18.1875 232.8203,18.3516 Q233.4688,18.5156 234.0156,18.875 Z " fill="#000000"/><text fill="#000000" font-family="sans-serif" font-size="12" lengthAdjust="spacingAndGlyphs" textLength="48" x="251.75" y="27.9102">Inventory</text><line style="stroke:#A80036;stroke-width:1.5;" x1="106" x2="413" y1="39" y2="39"/><line style="stroke:#A80036;stroke-width:1.5;" x1="106" x2="413" y1="47" y2="47"/><ellipse cx="116" cy="58" fill="#84BE84" rx="3" ry="3" style="stroke:#038048;stroke-width:1.0;"/><text fill="#000000" font-family="sans-serif" font-size="11" lengthAdjust="spacingAndGlyphs" textLength="283" x="125" y="62.4189">modify(item : Item, container : Container, quantity : Number)</text><!--MD5=[5dd0a087f358637a9504e61784103faf]
class InventoryLine--><rect codeLine="19" fill="#FEFECE" filter="url(#f13hi2c062s09e)" height="61.8359" id="InventoryLine" style="stroke:#A80036;stroke-width:1.5;" width="104" x="207.5" y="136"/><ellipse cx="222.5" cy="152" fill="#ADD1B2" rx="11" ry="11" style="stroke:#A80036;stroke-width:1.0;"/><path d="M225.2656,147.875 Q225.4219,147.6563 225.6094,147.5469 Q225.7969,147.4375 226.0156,147.4375 Q226.3906,147.4375 226.625,147.6953 Q226.8594,147.9531 226.8594,148.5625 L226.8594,150.0156 Q226.8594,150.625 226.625,150.8906 Q226.3906,151.1563 226.0156,151.1563 Q225.6719,151.1563 225.4688,150.9531 Q225.2656,150.7656 225.1563,150.25 Q225.1094,149.8906 224.9219,149.7031 Q224.5938,149.3281 223.9844,149.1094 Q223.375,148.8906 222.75,148.8906 Q221.9844,148.8906 221.3516,149.2188 Q220.7188,149.5469 220.2266,150.2969 Q219.7344,151.0469 219.7344,152.0781 L219.7344,153.1719 Q219.7344,154.4063 220.625,155.2266 Q221.5156,156.0469 223.1094,156.0469 Q224.0469,156.0469 224.7031,155.7969 Q225.0938,155.6406 225.5156,155.2031 Q225.7813,154.9375 225.9297,154.8594 Q226.0781,154.7813 226.2813,154.7813 Q226.6094,154.7813 226.8672,155.0391 Q227.125,155.2969 227.125,155.6406 Q227.125,155.9844 226.7813,156.3906 Q226.2813,156.9688 225.4844,157.2969 Q224.4063,157.75 223.1094,157.75 Q221.5938,157.75 220.3906,157.125 Q219.4063,156.625 218.7188,155.5547 Q218.0313,154.4844 218.0313,153.2031 L218.0313,152.0469 Q218.0313,150.7188 218.6484,149.5703 Q219.2656,148.4219 220.3594,147.8047 Q221.4531,147.1875 222.6875,147.1875 Q223.4219,147.1875 224.0703,147.3516 Q224.7188,147.5156 225.2656,147.875 Z " fill="#000000"/><text fill="#000000" font-family="sans-serif" font-size="12" lengthAdjust="spacingAndGlyphs" textLength="72" x="236.5" y="156.9102">InventoryLine</text><line style="stroke:#A80036;stroke-width:1.5;" x1="208.5" x2="310.5" y1="168" y2="168"/><rect fill="none" height="6" style="stroke:#C82930;stroke-width:1.0;" width="6" x="215.5" y="176"/><text fill="#000000" font-family="sans-serif" font-size="11" lengthAdjust="spacingAndGlyphs" textLength="38" x="227.5" y="183.4189">quantity</text><line style="stroke:#A80036;stroke-width:1.5;" x1="208.5" x2="310.5" y1="189.8359" y2="189.8359"/><!--MD5=[33e99256a52c712af58017d1dbd30d35]
link Catalog to Item--><path codeLine="23" d="M122.1059,214.8987 C122.1059,214.8987 147.7,251.73 159.02,268.03 " fill="none" id="Catalog-Item" style="stroke:#A80036;stroke-width:1.0;"/><polygon fill="#A80036" points="166.54,278.84,164.6871,269.167,163.686,274.7346,158.1184,273.7335,166.54,278.84" style="stroke:#A80036;stroke-width:1.0;"/><line style="stroke:#A80036;stroke-width:1.0;" x1="163.686" x2="159.12" y1="274.7346" y2="268.17"/><polygon fill="#A80036" points="115.25,205.05,115.395,212.2596,122.1059,214.8987,121.9608,207.6891,115.25,205.05" style="stroke:#A80036;stroke-width:1.0;"/><!--MD5=[cee1ffc394b4ae6c58dd2fb5d99edbe1]
link ContainerList to Container--><path codeLine="24" d="M396.4643,208.327 C396.4643,208.327 376.71,238.95 367.14,253.78 " fill="none" id="ContainerList-Container" style="stroke:#A80036;stroke-width:1.0;"/><polygon fill="#A80036" points="359.97,264.88,368.2126,259.4893,362.6824,260.6796,361.492,255.1495,359.97,264.88" style="stroke:#A80036;stroke-width:1.0;"/><line style="stroke:#A80036;stroke-width:1.0;" x1="362.6824" x2="367.025" y1="260.6796" y2="253.96"/><polygon fill="#A80036" points="402.98,198.25,396.3631,201.1166,396.4643,208.327,403.0811,205.4604,402.98,198.25" style="stroke:#A80036;stroke-width:1.0;"/><!--MD5=[d693699771cdcc01344d5cce0a99f926]
link Inventory to InventoryLine--><path codeLine="25" d="M259.5,81.1 C259.5,81.1 259.5,109.61 259.5,122.65 " fill="none" id="Inventory-InventoryLine" style="stroke:#A80036;stroke-width:1.0;"/><polygon fill="#A80036" points="259.5,135.68,263.5,126.68,259.5,130.68,255.5,126.68,259.5,135.68" style="stroke:#A80036;stroke-width:1.0;"/><line style="stroke:#A80036;stroke-width:1.0;" x1="259.5" x2="259.5" y1="130.68" y2="122.68"/><polygon fill="#A80036" points="259.5,69.1,255.5,75.1,259.5,81.1,263.5,75.1,259.5,69.1" style="stroke:#A80036;stroke-width:1.0;"/><!--MD5=[562204adf8454c9db6c8db6755a14385]
link InventoryLine to Container--><path codeLine="26" d="M274.95,198.25 C284.17,216.3 296.09,239.65 306.61,260.26 " fill="none" id="InventoryLine-to-Container" style="stroke:#A80036;stroke-width:1.0;"/><polygon fill="#A80036" points="308.97,264.88,308.4224,255.0464,306.6884,260.4309,301.3039,258.6969,308.97,264.88" style="stroke:#A80036;stroke-width:1.0;"/><!--MD5=[f1e8ccba03dd651a4ad89a9f88186407]
link InventoryLine to Item--><path codeLine="27" d="M244.05,198.25 C232.67,220.55 217.15,250.94 205.25,274.24 " fill="none" id="InventoryLine-to-Item" style="stroke:#A80036;stroke-width:1.0;"/><polygon fill="#A80036" points="202.92,278.8,210.5784,272.6074,205.1961,274.3481,203.4554,268.9657,202.92,278.8" style="stroke:#A80036;stroke-width:1.0;"/><!--MD5=[0200c09547ca599bd0a28652440a03b5]
@startuml classes
class Catalog {
  + add(item : Item)
  + search(word : String) : Item[]
}
class Item {
  -description
}
class ContainerList {
  + add(container : Container)
}
class Container {
  -location
  -drawer
  -id
}
class Inventory {
  + modify(item : Item, container : Container, quantity : Number)
}
class InventoryLine {
  -quantity
}

Catalog *- -> Item
ContainerList *- -> Container
Inventory *- -> InventoryLine
InventoryLine - -> Container
InventoryLine - -> Item
@enduml

PlantUML version 1.2020.22(Sun Dec 06 10:36:27 CET 2020)
(GPL source distribution)
Java Runtime: Java(TM) SE Runtime Environment
JVM: Java HotSpot(TM) 64-Bit Server VM
Default Encoding: Cp1252
Language: fr
Country: FR
--></g></svg>