<?xml version="1.0" encoding="UTF-8" standalone="no"?><svg xmlns="http://www.w3.org/2000/svg" xmlns:xlink="http://www.w3.org/1999/xlink" contentScriptType="application/ecmascript" contentStyleType="text/css" height="492px" preserveAspectRatio="none" style="width:564px;height:492px;" version="1.1" viewBox="0 0 564 492" width="564px" zoomAndPan="magnify"><defs><filter height="300%" id="fof6gzad109lg" width="300%" x="-1" y="-1"><feGaussianBlur result="blurOut" stdDeviation="2.0"/><feColorMatrix in="blurOut" result="blurOut2" type="matrix" values="0 0 0 0 0 0 0 0 0 0 0 0 0 0 0 0 0 0 .4 0"/><feOffset dx="4.0" dy="4.0" in="blurOut2" result="blurOut3"/><feBlend in="SourceGraphic" in2="blurOut3" mode="normal"/></filter></defs><g><!--MD5=[b582e6ce3c86f1934c1c2f1f310142ca]
class Catalog--><rect codeLine="1" fill="#FEFECE" filter="url(#fof6gzad109lg)" height="89.5078" id="Catalog" style="stroke:#A80036;stroke-width:1.5;" width="168" x="7" y="183.5"/><ellipse cx="65.25" cy="199.5" fill="#ADD1B2" rx="11" ry="11" style="stroke:#A80036;stroke-width:1.0;"/><path d="M68.0156,195.375 Q68.1719,195.1563 68.3594,195.0469 Q68.5469,194.9375 68.7656,194.9375 Q69.1406,194.9375 69.375,195.1953 Q69.6094,195.4531 69.6094,196.0625 L69.6094,197.5156 Q69.6094,198.125 69.375,198.3906 Q69.1406,198.6563 68.7656,198.6563 Q68.4219,198.6563 68.2188,198.4531 Q68.0156,198.2656 67.9063,197.75 Q67.8594,197.3906 67.6719,197.2031 Q67.3438,196.8281 66.7344,196.6094 Q66.125,196.3906 65.5,196.3906 Q64.7344,196.3906 64.1016,196.7188 Q63.4688,197.0469 62.9766,197.7969 Q62.4844,198.5469 62.4844,199.5781 L62.4844,200.6719 Q62.4844,201.9063 63.375,202.7266 Q64.2656,203.5469 65.8594,203.5469 Q66.7969,203.5469 67.4531,203.2969 Q67.8438,203.1406 68.2656,202.7031 Q68.5313,202.4375 68.6797,202.3594 Q68.8281,202.2813 69.0313,202.2813 Q69.3594,202.2813 69.6172,202.5391 Q69.875,202.7969 69.875,203.1406 Q69.875,203.4844 69.5313,203.8906 Q69.0313,204.4688 68.2344,204.7969 Q67.1563,205.25 65.8594,205.25 Q64.3438,205.25 63.1406,204.625 Q62.1563,204.125 61.4688,203.0547 Q60.7813,201.9844 60.7813,200.7031 L60.7813,199.5469 Q60.7813,198.2188 61.3984,197.0703 Q62.0156,195.9219 63.1094,195.3047 Q64.2031,194.6875 65.4375,194.6875 Q66.1719,194.6875 66.8203,194.8516 Q67.4688,195.0156 68.0156,195.375 Z " fill="#000000"/><text fill="#000000" font-family="sans-serif" font-size="12" lengthAdjust="spacingAndGlyphs" textLength="43" x="85.75" y="204.4102">Catalog</text><line style="stroke:#A80036;stroke-width:1.5;" x1="8" x2="174" y1="215.5" y2="215.5"/><line style="stroke:#A80036;stroke-width:1.5;" x1="8" x2="174" y1="223.5" y2="223.5"/><ellipse cx="18" cy="234.5" fill="#84BE84" rx="3" ry="3" style="stroke:#038048;stroke-width:1.0;"/><text fill="#000000" font-family="sans-serif" font-size="11" lengthAdjust="spacingAndGlyphs" textLength="73" x="27" y="238.9189">add(item : Item)</text><ellipse cx="18" cy="248.3359" fill="#84BE84" rx="3" ry="3" style="stroke:#038048;stroke-width:1.0;"/><text fill="#000000" font-family="sans-serif" font-size="11" lengthAdjust="spacingAndGlyphs" textLength="142" x="27" y="252.7549">getByUuid(uuid : String) : Item</text><ellipse cx="18" cy="262.1719" fill="#84BE84" rx="3" ry="3" style="stroke:#038048;stroke-width:1.0;"/><text fill="#000000" font-family="sans-serif" font-size="11" lengthAdjust="spacingAndGlyphs" textLength="139" x="27" y="266.5908">search(word : String) : Item[]</text><!--MD5=[44a1b4afaef76c16e6c9ec4990ad0c8d]
class Item--><rect codeLine="6" fill="#FEFECE" filter="url(#fof6gzad109lg)" height="89.5078" id="Item" style="stroke:#A80036;stroke-width:1.5;" width="178" x="69" y="367.5"/><ellipse cx="141.75" cy="383.5" fill="#ADD1B2" rx="11" ry="11" style="stroke:#A80036;stroke-width:1.0;"/><path d="M144.5156,379.375 Q144.6719,379.1563 144.8594,379.0469 Q145.0469,378.9375 145.2656,378.9375 Q145.6406,378.9375 145.875,379.1953 Q146.1094,379.4531 146.1094,380.0625 L146.1094,381.5156 Q146.1094,382.125 145.875,382.3906 Q145.6406,382.6563 145.2656,382.6563 Q144.9219,382.6563 144.7188,382.4531 Q144.5156,382.2656 144.4063,381.75 Q144.3594,381.3906 144.1719,381.2031 Q143.8438,380.8281 143.2344,380.6094 Q142.625,380.3906 142,380.3906 Q141.2344,380.3906 140.6016,380.7188 Q139.9688,381.0469 139.4766,381.7969 Q138.9844,382.5469 138.9844,383.5781 L138.9844,384.6719 Q138.9844,385.9063 139.875,386.7266 Q140.7656,387.5469 142.3594,387.5469 Q143.2969,387.5469 143.9531,387.2969 Q144.3438,387.1406 144.7656,386.7031 Q145.0313,386.4375 145.1797,386.3594 Q145.3281,386.2813 145.5313,386.2813 Q145.8594,386.2813 146.1172,386.5391 Q146.375,386.7969 146.375,387.1406 Q146.375,387.4844 146.0313,387.8906 Q145.5313,388.4688 144.7344,388.7969 Q143.6563,389.25 142.3594,389.25 Q140.8438,389.25 139.6406,388.625 Q138.6563,388.125 137.9688,387.0547 Q137.2813,385.9844 137.2813,384.7031 L137.2813,383.5469 Q137.2813,382.2188 137.8984,381.0703 Q138.5156,379.9219 139.6094,379.3047 Q140.7031,378.6875 141.9375,378.6875 Q142.6719,378.6875 143.3203,378.8516 Q143.9688,379.0156 144.5156,379.375 Z " fill="#000000"/><text fill="#000000" font-family="sans-serif" font-size="12" lengthAdjust="spacingAndGlyphs" textLength="24" x="162.25" y="388.4102">Item</text><line style="stroke:#A80036;stroke-width:1.5;" x1="70" x2="246" y1="399.5" y2="399.5"/><ellipse cx="80" cy="410.5" fill="none" rx="3" ry="3" style="stroke:#038048;stroke-width:1.0;"/><text fill="#000000" font-family="sans-serif" font-size="11" lengthAdjust="spacingAndGlyphs" textLength="57" x="89" y="414.9189">uuid : String</text><ellipse cx="80" cy="424.3359" fill="none" rx="3" ry="3" style="stroke:#038048;stroke-width:1.0;"/><text fill="#000000" font-family="sans-serif" font-size="11" lengthAdjust="spacingAndGlyphs" textLength="90" x="89" y="428.7549">description : String</text><line style="stroke:#A80036;stroke-width:1.5;" x1="70" x2="246" y1="435.1719" y2="435.1719"/><ellipse cx="80" cy="446.1719" fill="#84BE84" rx="3" ry="3" style="stroke:#038048;stroke-width:1.0;"/><text fill="#000000" font-family="sans-serif" font-size="11" lengthAdjust="spacingAndGlyphs" textLength="152" x="89" y="450.5908">compareTo(otherItem) : Number</text><!--MD5=[71c979fac2fbbf05f428f689863a8ca0]
class ContainerList--><rect codeLine="11" fill="#FEFECE" filter="url(#fof6gzad109lg)" height="117.1797" id="ContainerList" style="stroke:#A80036;stroke-width:1.5;" width="195" x="355.5" y="170"/><ellipse cx="411.75" cy="186" fill="#ADD1B2" rx="11" ry="11" style="stroke:#A80036;stroke-width:1.0;"/><path d="M414.5156,181.875 Q414.6719,181.6563 414.8594,181.5469 Q415.0469,181.4375 415.2656,181.4375 Q415.6406,181.4375 415.875,181.6953 Q416.1094,181.9531 416.1094,182.5625 L416.1094,184.0156 Q416.1094,184.625 415.875,184.8906 Q415.6406,185.1563 415.2656,185.1563 Q414.9219,185.1563 414.7188,184.9531 Q414.5156,184.7656 414.4063,184.25 Q414.3594,183.8906 414.1719,183.7031 Q413.8438,183.3281 413.2344,183.1094 Q412.625,182.8906 412,182.8906 Q411.2344,182.8906 410.6016,183.2188 Q409.9688,183.5469 409.4766,184.2969 Q408.9844,185.0469 408.9844,186.0781 L408.9844,187.1719 Q408.9844,188.4063 409.875,189.2266 Q410.7656,190.0469 412.3594,190.0469 Q413.2969,190.0469 413.9531,189.7969 Q414.3438,189.6406 414.7656,189.2031 Q415.0313,188.9375 415.1797,188.8594 Q415.3281,188.7813 415.5313,188.7813 Q415.8594,188.7813 416.1172,189.0391 Q416.375,189.2969 416.375,189.6406 Q416.375,189.9844 416.0313,190.3906 Q415.5313,190.9688 414.7344,191.2969 Q413.6563,191.75 412.3594,191.75 Q410.8438,191.75 409.6406,191.125 Q408.6563,190.625 407.9688,189.5547 Q407.2813,188.4844 407.2813,187.2031 L407.2813,186.0469 Q407.2813,184.7188 407.8984,183.5703 Q408.5156,182.4219 409.6094,181.8047 Q410.7031,181.1875 411.9375,181.1875 Q412.6719,181.1875 413.3203,181.3516 Q413.9688,181.5156 414.5156,181.875 Z " fill="#000000"/><text fill="#000000" font-family="sans-serif" font-size="12" lengthAdjust="spacingAndGlyphs" textLength="74" x="432.25" y="190.9102">ContainerList</text><line style="stroke:#A80036;stroke-width:1.5;" x1="356.5" x2="549.5" y1="202" y2="202"/><line style="stroke:#A80036;stroke-width:1.5;" x1="356.5" x2="549.5" y1="210" y2="210"/><ellipse cx="366.5" cy="221" fill="#84BE84" rx="3" ry="3" style="stroke:#038048;stroke-width:1.0;"/><text fill="#000000" font-family="sans-serif" font-size="11" lengthAdjust="spacingAndGlyphs" textLength="126" x="375.5" y="225.4189">add(container : Container)</text><ellipse cx="366.5" cy="234.8359" fill="#84BE84" rx="3" ry="3" style="stroke:#038048;stroke-width:1.0;"/><text fill="#000000" font-family="sans-serif" font-size="11" lengthAdjust="spacingAndGlyphs" textLength="125" x="375.5" y="239.2549">getAllLocations() : String[]</text><ellipse cx="366.5" cy="248.6719" fill="#84BE84" rx="3" ry="3" style="stroke:#038048;stroke-width:1.0;"/><text fill="#000000" font-family="sans-serif" font-size="11" lengthAdjust="spacingAndGlyphs" textLength="121" x="375.5" y="253.0908">getAllDrawers() : String[]</text><ellipse cx="366.5" cy="262.5078" fill="#84BE84" rx="3" ry="3" style="stroke:#038048;stroke-width:1.0;"/><text fill="#000000" font-family="sans-serif" font-size="11" lengthAdjust="spacingAndGlyphs" textLength="169" x="375.5" y="266.9268">getByUuid(uuid : String) : Container</text><ellipse cx="366.5" cy="276.3438" fill="#84BE84" rx="3" ry="3" style="stroke:#038048;stroke-width:1.0;"/><text fill="#000000" font-family="sans-serif" font-size="11" lengthAdjust="spacingAndGlyphs" textLength="166" x="375.5" y="280.7627">search(word : String) : Container[]</text><!--MD5=[e9a58730c562b34349daa605d1ed6662]
class Container--><rect codeLine="18" fill="#FEFECE" filter="url(#fof6gzad109lg)" height="131.0156" id="Container" style="stroke:#A80036;stroke-width:1.5;" width="205" x="316.5" y="347"/><ellipse cx="387.75" cy="363" fill="#ADD1B2" rx="11" ry="11" style="stroke:#A80036;stroke-width:1.0;"/><path d="M390.5156,358.875 Q390.6719,358.6563 390.8594,358.5469 Q391.0469,358.4375 391.2656,358.4375 Q391.6406,358.4375 391.875,358.6953 Q392.1094,358.9531 392.1094,359.5625 L392.1094,361.0156 Q392.1094,361.625 391.875,361.8906 Q391.6406,362.1563 391.2656,362.1563 Q390.9219,362.1563 390.7188,361.9531 Q390.5156,361.7656 390.4063,361.25 Q390.3594,360.8906 390.1719,360.7031 Q389.8438,360.3281 389.2344,360.1094 Q388.625,359.8906 388,359.8906 Q387.2344,359.8906 386.6016,360.2188 Q385.9688,360.5469 385.4766,361.2969 Q384.9844,362.0469 384.9844,363.0781 L384.9844,364.1719 Q384.9844,365.4063 385.875,366.2266 Q386.7656,367.0469 388.3594,367.0469 Q389.2969,367.0469 389.9531,366.7969 Q390.3438,366.6406 390.7656,366.2031 Q391.0313,365.9375 391.1797,365.8594 Q391.3281,365.7813 391.5313,365.7813 Q391.8594,365.7813 392.1172,366.0391 Q392.375,366.2969 392.375,366.6406 Q392.375,366.9844 392.0313,367.3906 Q391.5313,367.9688 390.7344,368.2969 Q389.6563,368.75 388.3594,368.75 Q386.8438,368.75 385.6406,368.125 Q384.6563,367.625 383.9688,366.5547 Q383.2813,365.4844 383.2813,364.2031 L383.2813,363.0469 Q383.2813,361.7188 383.8984,360.5703 Q384.5156,359.4219 385.6094,358.8047 Q386.7031,358.1875 387.9375,358.1875 Q388.6719,358.1875 389.3203,358.3516 Q389.9688,358.5156 390.5156,358.875 Z " fill="#000000"/><text fill="#000000" font-family="sans-serif" font-size="12" lengthAdjust="spacingAndGlyphs" textLength="54" x="408.25" y="367.9102">Container</text><line style="stroke:#A80036;stroke-width:1.5;" x1="317.5" x2="520.5" y1="379" y2="379"/><ellipse cx="327.5" cy="390" fill="none" rx="3" ry="3" style="stroke:#038048;stroke-width:1.0;"/><text fill="#000000" font-family="sans-serif" font-size="11" lengthAdjust="spacingAndGlyphs" textLength="57" x="336.5" y="394.4189">uuid : String</text><ellipse cx="327.5" cy="403.8359" fill="none" rx="3" ry="3" style="stroke:#038048;stroke-width:1.0;"/><text fill="#000000" font-family="sans-serif" font-size="11" lengthAdjust="spacingAndGlyphs" textLength="74" x="336.5" y="408.2549">location : String</text><ellipse cx="327.5" cy="417.6719" fill="none" rx="3" ry="3" style="stroke:#038048;stroke-width:1.0;"/><text fill="#000000" font-family="sans-serif" font-size="11" lengthAdjust="spacingAndGlyphs" textLength="73" x="336.5" y="422.0908">drawer : String</text><ellipse cx="327.5" cy="431.5078" fill="none" rx="3" ry="3" style="stroke:#038048;stroke-width:1.0;"/><text fill="#000000" font-family="sans-serif" font-size="11" lengthAdjust="spacingAndGlyphs" textLength="59" x="336.5" y="435.9268">label : String</text><line style="stroke:#A80036;stroke-width:1.5;" x1="317.5" x2="520.5" y1="442.3438" y2="442.3438"/><ellipse cx="327.5" cy="453.3438" fill="#84BE84" rx="3" ry="3" style="stroke:#038048;stroke-width:1.0;"/><text fill="#000000" font-family="sans-serif" font-size="11" lengthAdjust="spacingAndGlyphs" textLength="179" x="336.5" y="457.7627">compareTo(otherContainer) : Number</text><ellipse cx="327.5" cy="467.1797" fill="#84BE84" rx="3" ry="3" style="stroke:#038048;stroke-width:1.0;"/><text fill="#000000" font-family="sans-serif" font-size="11" lengthAdjust="spacingAndGlyphs" textLength="116" x="336.5" y="471.5986">get description() : String</text><!--MD5=[ee084734eb3a5ffad99a0de9980f769b]
class Inventory--><rect codeLine="26" fill="#FEFECE" filter="url(#fof6gzad109lg)" height="103.3438" id="Inventory" style="stroke:#A80036;stroke-width:1.5;" width="374" x="78" y="7"/><ellipse cx="236.75" cy="23" fill="#ADD1B2" rx="11" ry="11" style="stroke:#A80036;stroke-width:1.0;"/><path d="M239.5156,18.875 Q239.6719,18.6563 239.8594,18.5469 Q240.0469,18.4375 240.2656,18.4375 Q240.6406,18.4375 240.875,18.6953 Q241.1094,18.9531 241.1094,19.5625 L241.1094,21.0156 Q241.1094,21.625 240.875,21.8906 Q240.6406,22.1563 240.2656,22.1563 Q239.9219,22.1563 239.7188,21.9531 Q239.5156,21.7656 239.4063,21.25 Q239.3594,20.8906 239.1719,20.7031 Q238.8438,20.3281 238.2344,20.1094 Q237.625,19.8906 237,19.8906 Q236.2344,19.8906 235.6016,20.2188 Q234.9688,20.5469 234.4766,21.2969 Q233.9844,22.0469 233.9844,23.0781 L233.9844,24.1719 Q233.9844,25.4063 234.875,26.2266 Q235.7656,27.0469 237.3594,27.0469 Q238.2969,27.0469 238.9531,26.7969 Q239.3438,26.6406 239.7656,26.2031 Q240.0313,25.9375 240.1797,25.8594 Q240.3281,25.7813 240.5313,25.7813 Q240.8594,25.7813 241.1172,26.0391 Q241.375,26.2969 241.375,26.6406 Q241.375,26.9844 241.0313,27.3906 Q240.5313,27.9688 239.7344,28.2969 Q238.6563,28.75 237.3594,28.75 Q235.8438,28.75 234.6406,28.125 Q233.6563,27.625 232.9688,26.5547 Q232.2813,25.4844 232.2813,24.2031 L232.2813,23.0469 Q232.2813,21.7188 232.8984,20.5703 Q233.5156,19.4219 234.6094,18.8047 Q235.7031,18.1875 236.9375,18.1875 Q237.6719,18.1875 238.3203,18.3516 Q238.9688,18.5156 239.5156,18.875 Z " fill="#000000"/><text fill="#000000" font-family="sans-serif" font-size="12" lengthAdjust="spacingAndGlyphs" textLength="48" x="257.25" y="27.9102">Inventory</text><line style="stroke:#A80036;stroke-width:1.5;" x1="79" x2="451" y1="39" y2="39"/><line style="stroke:#A80036;stroke-width:1.5;" x1="79" x2="451" y1="47" y2="47"/><ellipse cx="89" cy="58" fill="#84BE84" rx="3" ry="3" style="stroke:#038048;stroke-width:1.0;"/><text fill="#000000" font-family="sans-serif" font-size="11" lengthAdjust="spacingAndGlyphs" textLength="215" x="98" y="62.4189">findByItem(itemUuid : String) : InventoryLine[]</text><ellipse cx="89" cy="71.8359" fill="#84BE84" rx="3" ry="3" style="stroke:#038048;stroke-width:1.0;"/><text fill="#000000" font-family="sans-serif" font-size="11" lengthAdjust="spacingAndGlyphs" textLength="268" x="98" y="76.2549">findByContainer(containerUuid : String) : InventoryLine[]</text><ellipse cx="89" cy="85.6719" fill="#84BE84" rx="3" ry="3" style="stroke:#038048;stroke-width:1.0;"/><text fill="#000000" font-family="sans-serif" font-size="11" lengthAdjust="spacingAndGlyphs" textLength="283" x="98" y="90.0908">modify(item : Item, container : Container, quantity : Number)</text><rect fill="#F24D5C" height="6" style="stroke:#C82930;stroke-width:1.0;" width="6" x="86" y="96.5078"/><text fill="#000000" font-family="sans-serif" font-size="11" lengthAdjust="spacingAndGlyphs" textLength="348" x="98" y="103.9268">getByItemAndContainer(item : Item, container : Container) : InventoryLine</text><!--MD5=[5dd0a087f358637a9504e61784103faf]
class InventoryLine--><rect codeLine="32" fill="#FEFECE" filter="url(#fof6gzad109lg)" height="61.8359" id="InventoryLine" style="stroke:#A80036;stroke-width:1.5;" width="110" x="210" y="197.5"/><ellipse cx="227.7" cy="213.5" fill="#ADD1B2" rx="11" ry="11" style="stroke:#A80036;stroke-width:1.0;"/><path d="M230.4656,209.375 Q230.6219,209.1563 230.8094,209.0469 Q230.9969,208.9375 231.2156,208.9375 Q231.5906,208.9375 231.825,209.1953 Q232.0594,209.4531 232.0594,210.0625 L232.0594,211.5156 Q232.0594,212.125 231.825,212.3906 Q231.5906,212.6563 231.2156,212.6563 Q230.8719,212.6563 230.6688,212.4531 Q230.4656,212.2656 230.3563,211.75 Q230.3094,211.3906 230.1219,211.2031 Q229.7938,210.8281 229.1844,210.6094 Q228.575,210.3906 227.95,210.3906 Q227.1844,210.3906 226.5516,210.7188 Q225.9188,211.0469 225.4266,211.7969 Q224.9344,212.5469 224.9344,213.5781 L224.9344,214.6719 Q224.9344,215.9063 225.825,216.7266 Q226.7156,217.5469 228.3094,217.5469 Q229.2469,217.5469 229.9031,217.2969 Q230.2938,217.1406 230.7156,216.7031 Q230.9813,216.4375 231.1297,216.3594 Q231.2781,216.2813 231.4813,216.2813 Q231.8094,216.2813 232.0672,216.5391 Q232.325,216.7969 232.325,217.1406 Q232.325,217.4844 231.9813,217.8906 Q231.4813,218.4688 230.6844,218.7969 Q229.6063,219.25 228.3094,219.25 Q226.7938,219.25 225.5906,218.625 Q224.6063,218.125 223.9188,217.0547 Q223.2313,215.9844 223.2313,214.7031 L223.2313,213.5469 Q223.2313,212.2188 223.8484,211.0703 Q224.4656,209.9219 225.5594,209.3047 Q226.6531,208.6875 227.8875,208.6875 Q228.6219,208.6875 229.2703,208.8516 Q229.9188,209.0156 230.4656,209.375 Z " fill="#000000"/><text fill="#000000" font-family="sans-serif" font-size="12" lengthAdjust="spacingAndGlyphs" textLength="72" x="242.3" y="218.4102">InventoryLine</text><line style="stroke:#A80036;stroke-width:1.5;" x1="211" x2="319" y1="229.5" y2="229.5"/><ellipse cx="221" cy="240.5" fill="none" rx="3" ry="3" style="stroke:#038048;stroke-width:1.0;"/><text fill="#000000" font-family="sans-serif" font-size="11" lengthAdjust="spacingAndGlyphs" textLength="84" x="230" y="244.9189">quantity : Number</text><line style="stroke:#A80036;stroke-width:1.5;" x1="211" x2="319" y1="251.3359" y2="251.3359"/><!--MD5=[33e99256a52c712af58017d1dbd30d35]
link Catalog to Item--><path codeLine="36" d="M111.3727,284.8185 C111.3727,284.8185 129.04,332.84 137.1,354.73 " fill="none" id="Catalog-Item" style="stroke:#A80036;stroke-width:1.0;"/><polygon fill="#A80036" points="141.7,367.22,142.3484,357.3925,139.9745,362.5272,134.8399,360.1533,141.7,367.22" style="stroke:#A80036;stroke-width:1.0;"/><line style="stroke:#A80036;stroke-width:1.0;" x1="139.9745" x2="137.21" y1="362.5272" y2="355.02"/><polygon fill="#A80036" points="107.22,273.56,105.5435,280.5735,111.3727,284.8185,113.0492,277.805,107.22,273.56" style="stroke:#A80036;stroke-width:1.0;"/><!--MD5=[cee1ffc394b4ae6c58dd2fb5d99edbe1]
link ContainerList to Container--><path codeLine="37" d="M440.0389,298.8864 C440.0389,298.8864 435.6,322.66 433.52,333.79 " fill="none" id="ContainerList-Container" style="stroke:#A80036;stroke-width:1.0;"/><polygon fill="#A80036" points="431.11,346.69,436.693,338.5764,432.0271,341.7748,428.8287,337.109,431.11,346.69" style="stroke:#A80036;stroke-width:1.0;"/><line style="stroke:#A80036;stroke-width:1.0;" x1="432.0271" x2="433.495" y1="341.7748" y2="333.915"/><polygon fill="#A80036" points="442.24,287.09,437.2073,292.2545,440.0389,298.8864,445.0716,293.7219,442.24,287.09" style="stroke:#A80036;stroke-width:1.0;"/><!--MD5=[d693699771cdcc01344d5cce0a99f926]
link Inventory to InventoryLine--><path codeLine="38" d="M265,122.36 C265,122.36 265,165.85 265,184.28 " fill="none" id="Inventory-InventoryLine" style="stroke:#A80036;stroke-width:1.0;"/><polygon fill="#A80036" points="265,197.32,269,188.32,265,192.32,261,188.32,265,197.32" style="stroke:#A80036;stroke-width:1.0;"/><line style="stroke:#A80036;stroke-width:1.0;" x1="265" x2="265" y1="192.32" y2="184.32"/><polygon fill="#A80036" points="265,110.36,261,116.36,265,122.36,269,116.36,265,110.36" style="stroke:#A80036;stroke-width:1.0;"/><!--MD5=[562204adf8454c9db6c8db6755a14385]
link InventoryLine to Container--><path codeLine="39" d="M290.43,259.55 C309.56,282.16 336.55,314.06 360.87,342.8 " fill="none" id="InventoryLine-to-Container" style="stroke:#A80036;stroke-width:1.0;"/><polygon fill="#A80036" points="364.13,346.65,361.3859,337.1911,360.9067,342.8277,355.2702,342.3484,364.13,346.65" style="stroke:#A80036;stroke-width:1.0;"/><!--MD5=[f1e8ccba03dd651a4ad89a9f88186407]
link InventoryLine to Item--><path codeLine="40" d="M247.33,259.55 C230.8,287.67 205.82,330.16 186.48,363.06 " fill="none" id="InventoryLine-to-Item" style="stroke:#A80036;stroke-width:1.0;"/><polygon fill="#A80036" points="183.91,367.43,191.9259,361.7076,186.4488,363.1225,185.0339,357.6455,183.91,367.43" style="stroke:#A80036;stroke-width:1.0;"/><!--MD5=[1f90db06f3ab5cfd2960fb65bc03e6c9]
@startuml classes
class Catalog {
  + add(item : Item)
  + getByUuid(uuid : String) : Item
  + search(word : String) : Item[]
}
class Item {
  + uuid : String
  + description : String
  + compareTo(otherItem) : Number
}
class ContainerList {
  + add(container : Container)
  + getAllLocations() : String[]
  + getAllDrawers() : String[]
  + getByUuid(uuid : String) : Container
  + search(word : String) : Container[]
}
class Container {
  + uuid : String
  + location : String
  + drawer : String
  + label : String
  + compareTo(otherContainer) : Number
  + get description() : String
}
class Inventory {
  + findByItem(itemUuid : String) : InventoryLine[]
  + findByContainer(containerUuid : String) : InventoryLine[]
  + modify(item : Item, container : Container, quantity : Number)
  - getByItemAndContainer(item : Item, container : Container) : InventoryLine
}
class InventoryLine {
  + quantity : Number
}

Catalog *- -> Item
ContainerList *- -> Container
Inventory *- -> InventoryLine
InventoryLine - -> Container
InventoryLine - -> Item
@enduml

PlantUML version 1.2020.22(Sun Dec 06 10:36:27 CET 2020)
(GPL source distribution)
Java Runtime: Java(TM) SE Runtime Environment
JVM: Java HotSpot(TM) 64-Bit Server VM
Default Encoding: Cp1252
Language: fr
Country: FR
--></g></svg>