<?xml version="1.0" encoding="UTF-8" standalone="no"?><svg xmlns="http://www.w3.org/2000/svg" xmlns:xlink="http://www.w3.org/1999/xlink" contentScriptType="application/ecmascript" contentStyleType="text/css" height="354px" preserveAspectRatio="none" style="width:235px;height:354px;" version="1.1" viewBox="0 0 235 354" width="235px" zoomAndPan="magnify"><defs><filter height="300%" id="f1x9minvxel0fn" width="300%" x="-1" y="-1"><feGaussianBlur result="blurOut" stdDeviation="2.0"/><feColorMatrix in="blurOut" result="blurOut2" type="matrix" values="0 0 0 0 0 0 0 0 0 0 0 0 0 0 0 0 0 0 .4 0"/><feOffset dx="4.0" dy="4.0" in="blurOut2" result="blurOut3"/><feBlend in="SourceGraphic" in2="blurOut3" mode="normal"/></filter></defs><g><!--MD5=[b582e6ce3c86f1934c1c2f1f310142ca]
class Catalog--><rect codeLine="1" fill="#FEFECE" filter="url(#f1x9minvxel0fn)" height="48" id="Catalog" style="stroke: #A80036; stroke-width: 1.5;" width="75" x="7" y="164"/><ellipse cx="22" cy="180" fill="#ADD1B2" rx="11" ry="11" style="stroke: #A80036; stroke-width: 1.0;"/><path d="M24.7656,175.875 Q24.9219,175.6563 25.1094,175.5469 Q25.2969,175.4375 25.5156,175.4375 Q25.8906,175.4375 26.125,175.6953 Q26.3594,175.9531 26.3594,176.5625 L26.3594,178.0156 Q26.3594,178.625 26.125,178.8906 Q25.8906,179.1563 25.5156,179.1563 Q25.1719,179.1563 24.9688,178.9531 Q24.7656,178.7656 24.6563,178.25 Q24.6094,177.8906 24.4219,177.7031 Q24.0938,177.3281 23.4844,177.1094 Q22.875,176.8906 22.25,176.8906 Q21.4844,176.8906 20.8516,177.2188 Q20.2188,177.5469 19.7266,178.2969 Q19.2344,179.0469 19.2344,180.0781 L19.2344,181.1719 Q19.2344,182.4063 20.125,183.2266 Q21.0156,184.0469 22.6094,184.0469 Q23.5469,184.0469 24.2031,183.7969 Q24.5938,183.6406 25.0156,183.2031 Q25.2813,182.9375 25.4297,182.8594 Q25.5781,182.7813 25.7813,182.7813 Q26.1094,182.7813 26.3672,183.0391 Q26.625,183.2969 26.625,183.6406 Q26.625,183.9844 26.2813,184.3906 Q25.7813,184.9688 24.9844,185.2969 Q23.9063,185.75 22.6094,185.75 Q21.0938,185.75 19.8906,185.125 Q18.9063,184.625 18.2188,183.5547 Q17.5313,182.4844 17.5313,181.2031 L17.5313,180.0469 Q17.5313,178.7188 18.1484,177.5703 Q18.7656,176.4219 19.8594,175.8047 Q20.9531,175.1875 22.1875,175.1875 Q22.9219,175.1875 23.5703,175.3516 Q24.2188,175.5156 24.7656,175.875 Z "/><text fill="#000000" font-family="sans-serif" font-size="12" lengthAdjust="spacingAndGlyphs" textLength="43" x="36" y="184.9102">Catalog</text><line style="stroke: #A80036; stroke-width: 1.5;" x1="8" x2="81" y1="196" y2="196"/><line style="stroke: #A80036; stroke-width: 1.5;" x1="8" x2="81" y1="204" y2="204"/><!--MD5=[44a1b4afaef76c16e6c9ec4990ad0c8d]
class Item--><rect codeLine="2" fill="#FEFECE" filter="url(#f1x9minvxel0fn)" height="61.8359" id="Item" style="stroke: #A80036; stroke-width: 1.5;" width="79" x="67" y="279"/><ellipse cx="92.35" cy="295" fill="#ADD1B2" rx="11" ry="11" style="stroke: #A80036; stroke-width: 1.0;"/><path d="M95.1156,290.875 Q95.2719,290.6563 95.4594,290.5469 Q95.6469,290.4375 95.8656,290.4375 Q96.2406,290.4375 96.475,290.6953 Q96.7094,290.9531 96.7094,291.5625 L96.7094,293.0156 Q96.7094,293.625 96.475,293.8906 Q96.2406,294.1563 95.8656,294.1563 Q95.5219,294.1563 95.3188,293.9531 Q95.1156,293.7656 95.0063,293.25 Q94.9594,292.8906 94.7719,292.7031 Q94.4438,292.3281 93.8344,292.1094 Q93.225,291.8906 92.6,291.8906 Q91.8344,291.8906 91.2016,292.2188 Q90.5688,292.5469 90.0766,293.2969 Q89.5844,294.0469 89.5844,295.0781 L89.5844,296.1719 Q89.5844,297.4063 90.475,298.2266 Q91.3656,299.0469 92.9594,299.0469 Q93.8969,299.0469 94.5531,298.7969 Q94.9438,298.6406 95.3656,298.2031 Q95.6313,297.9375 95.7797,297.8594 Q95.9281,297.7813 96.1313,297.7813 Q96.4594,297.7813 96.7172,298.0391 Q96.975,298.2969 96.975,298.6406 Q96.975,298.9844 96.6313,299.3906 Q96.1313,299.9688 95.3344,300.2969 Q94.2563,300.75 92.9594,300.75 Q91.4438,300.75 90.2406,300.125 Q89.2563,299.625 88.5688,298.5547 Q87.8813,297.4844 87.8813,296.2031 L87.8813,295.0469 Q87.8813,293.7188 88.4984,292.5703 Q89.1156,291.4219 90.2094,290.8047 Q91.3031,290.1875 92.5375,290.1875 Q93.2719,290.1875 93.9203,290.3516 Q94.5688,290.5156 95.1156,290.875 Z "/><text fill="#000000" font-family="sans-serif" font-size="12" lengthAdjust="spacingAndGlyphs" textLength="24" x="108.65" y="299.9102">Item</text><line style="stroke: #A80036; stroke-width: 1.5;" x1="68" x2="145" y1="311" y2="311"/><rect fill="none" height="6" style="stroke: #C82930; stroke-width: 1.0;" width="6" x="75" y="319"/><text fill="#000000" font-family="sans-serif" font-size="11" lengthAdjust="spacingAndGlyphs" textLength="53" x="87" y="326.4189">description</text><line style="stroke: #A80036; stroke-width: 1.5;" x1="68" x2="145" y1="332.8359" y2="332.8359"/><!--MD5=[e9a58730c562b34349daa605d1ed6662]
class Container--><rect codeLine="5" fill="#FEFECE" filter="url(#f1x9minvxel0fn)" height="89.5078" id="Container" style="stroke: #A80036; stroke-width: 1.5;" width="86" x="126.5" y="7"/><ellipse cx="141.5" cy="23" fill="#ADD1B2" rx="11" ry="11" style="stroke: #A80036; stroke-width: 1.0;"/><path d="M144.2656,18.875 Q144.4219,18.6563 144.6094,18.5469 Q144.7969,18.4375 145.0156,18.4375 Q145.3906,18.4375 145.625,18.6953 Q145.8594,18.9531 145.8594,19.5625 L145.8594,21.0156 Q145.8594,21.625 145.625,21.8906 Q145.3906,22.1563 145.0156,22.1563 Q144.6719,22.1563 144.4688,21.9531 Q144.2656,21.7656 144.1563,21.25 Q144.1094,20.8906 143.9219,20.7031 Q143.5938,20.3281 142.9844,20.1094 Q142.375,19.8906 141.75,19.8906 Q140.9844,19.8906 140.3516,20.2188 Q139.7188,20.5469 139.2266,21.2969 Q138.7344,22.0469 138.7344,23.0781 L138.7344,24.1719 Q138.7344,25.4063 139.625,26.2266 Q140.5156,27.0469 142.1094,27.0469 Q143.0469,27.0469 143.7031,26.7969 Q144.0938,26.6406 144.5156,26.2031 Q144.7813,25.9375 144.9297,25.8594 Q145.0781,25.7813 145.2813,25.7813 Q145.6094,25.7813 145.8672,26.0391 Q146.125,26.2969 146.125,26.6406 Q146.125,26.9844 145.7813,27.3906 Q145.2813,27.9688 144.4844,28.2969 Q143.4063,28.75 142.1094,28.75 Q140.5938,28.75 139.3906,28.125 Q138.4063,27.625 137.7188,26.5547 Q137.0313,25.4844 137.0313,24.2031 L137.0313,23.0469 Q137.0313,21.7188 137.6484,20.5703 Q138.2656,19.4219 139.3594,18.8047 Q140.4531,18.1875 141.6875,18.1875 Q142.4219,18.1875 143.0703,18.3516 Q143.7188,18.5156 144.2656,18.875 Z "/><text fill="#000000" font-family="sans-serif" font-size="12" lengthAdjust="spacingAndGlyphs" textLength="54" x="155.5" y="27.9102">Container</text><line style="stroke: #A80036; stroke-width: 1.5;" x1="127.5" x2="211.5" y1="39" y2="39"/><rect fill="none" height="6" style="stroke: #C82930; stroke-width: 1.0;" width="6" x="134.5" y="47"/><text fill="#000000" font-family="sans-serif" font-size="11" lengthAdjust="spacingAndGlyphs" textLength="37" x="146.5" y="54.4189">location</text><rect fill="none" height="6" style="stroke: #C82930; stroke-width: 1.0;" width="6" x="134.5" y="60.8359"/><text fill="#000000" font-family="sans-serif" font-size="11" lengthAdjust="spacingAndGlyphs" textLength="36" x="146.5" y="68.2549">drawer</text><rect fill="none" height="6" style="stroke: #C82930; stroke-width: 1.0;" width="6" x="134.5" y="74.6719"/><text fill="#000000" font-family="sans-serif" font-size="11" lengthAdjust="spacingAndGlyphs" textLength="8" x="146.5" y="82.0908">id</text><line style="stroke: #A80036; stroke-width: 1.5;" x1="127.5" x2="211.5" y1="88.5078" y2="88.5078"/><!--MD5=[673632be8b83abd1605123faeae7f545]
class ItemInventory--><rect codeLine="10" fill="#FEFECE" filter="url(#f1x9minvxel0fn)" height="61.8359" id="ItemInventory" style="stroke: #A80036; stroke-width: 1.5;" width="104" x="117.5" y="157"/><ellipse cx="132.5" cy="173" fill="#ADD1B2" rx="11" ry="11" style="stroke: #A80036; stroke-width: 1.0;"/><path d="M135.2656,168.875 Q135.4219,168.6563 135.6094,168.5469 Q135.7969,168.4375 136.0156,168.4375 Q136.3906,168.4375 136.625,168.6953 Q136.8594,168.9531 136.8594,169.5625 L136.8594,171.0156 Q136.8594,171.625 136.625,171.8906 Q136.3906,172.1563 136.0156,172.1563 Q135.6719,172.1563 135.4688,171.9531 Q135.2656,171.7656 135.1563,171.25 Q135.1094,170.8906 134.9219,170.7031 Q134.5938,170.3281 133.9844,170.1094 Q133.375,169.8906 132.75,169.8906 Q131.9844,169.8906 131.3516,170.2188 Q130.7188,170.5469 130.2266,171.2969 Q129.7344,172.0469 129.7344,173.0781 L129.7344,174.1719 Q129.7344,175.4063 130.625,176.2266 Q131.5156,177.0469 133.1094,177.0469 Q134.0469,177.0469 134.7031,176.7969 Q135.0938,176.6406 135.5156,176.2031 Q135.7813,175.9375 135.9297,175.8594 Q136.0781,175.7813 136.2813,175.7813 Q136.6094,175.7813 136.8672,176.0391 Q137.125,176.2969 137.125,176.6406 Q137.125,176.9844 136.7813,177.3906 Q136.2813,177.9688 135.4844,178.2969 Q134.4063,178.75 133.1094,178.75 Q131.5938,178.75 130.3906,178.125 Q129.4063,177.625 128.7188,176.5547 Q128.0313,175.4844 128.0313,174.2031 L128.0313,173.0469 Q128.0313,171.7188 128.6484,170.5703 Q129.2656,169.4219 130.3594,168.8047 Q131.4531,168.1875 132.6875,168.1875 Q133.4219,168.1875 134.0703,168.3516 Q134.7188,168.5156 135.2656,168.875 Z "/><text fill="#000000" font-family="sans-serif" font-size="12" lengthAdjust="spacingAndGlyphs" textLength="72" x="146.5" y="177.9102">ItemInventory</text><line style="stroke: #A80036; stroke-width: 1.5;" x1="118.5" x2="220.5" y1="189" y2="189"/><rect fill="none" height="6" style="stroke: #C82930; stroke-width: 1.0;" width="6" x="125.5" y="197"/><text fill="#000000" font-family="sans-serif" font-size="11" lengthAdjust="spacingAndGlyphs" textLength="38" x="137.5" y="204.4189">quantity</text><line style="stroke: #A80036; stroke-width: 1.5;" x1="118.5" x2="220.5" y1="210.8359" y2="210.8359"/><!--MD5=[d548f28ecabb7597399d328344be31fb]
reverse link Catalog to Item--><path codeLine="13" d="M62.47,223.79 C71.44,241.15 82.19,261.95 90.82,278.66 " fill="none" id="Catalog-backto-Item" style="stroke: #A80036; stroke-width: 1.0;"/><polygon fill="#A80036" points="56.45,212.14,55.6541,219.3071,61.9638,222.7982,62.7596,215.6312,56.45,212.14" style="stroke: #A80036; stroke-width: 1.0;"/><!--MD5=[a3fe1ec0b11485924ddf0d6715bc35de]
reverse link Container to ItemInventory--><path codeLine="14" d="M169.5,110.39 C169.5,126.35 169.5,143.04 169.5,156.76 " fill="none" id="Container-backto-ItemInventory" style="stroke: #A80036; stroke-width: 1.0;"/><polygon fill="#FFFFFF" points="169.5,97.25,165.5,103.25,169.5,109.25,173.5,103.25,169.5,97.25" style="stroke: #A80036; stroke-width: 1.0;"/><!--MD5=[563f521a6d8ad4e59ea0e5a74407958c]
link ItemInventory to Item--><path codeLine="15" d="M153.6,219.28 C144.05,237.47 131.94,260.54 122.39,278.73 " fill="none" id="ItemInventory-Item" style="stroke: #A80036; stroke-width: 1.0;"/><!--MD5=[6fc358b4de4c2f252dc5c8354a5bbfe1]
@startuml classes
class Catalog
class Item {
  -description
}
class Container {
  -location
  -drawer
  -id
}
class ItemInventory {
  -quantity
}
Catalog *- - Item
Container o- - ItemInventory
ItemInventory - - Item
@enduml

PlantUML version 1.2020.18(Wed Sep 30 21:40:44 CEST 2020)
(GPL source distribution)
Java Runtime: Java(TM) SE Runtime Environment
JVM: Java HotSpot(TM) 64-Bit Server VM
Default Encoding: Cp1252
Language: fr
Country: FR
--></g></svg>