<?xml version="1.0" encoding="UTF-8" standalone="no"?><svg xmlns="http://www.w3.org/2000/svg" xmlns:xlink="http://www.w3.org/1999/xlink" contentScriptType="application/ecmascript" contentStyleType="text/css" height="477px" preserveAspectRatio="none" style="width:480px;height:477px;" version="1.1" viewBox="0 0 480 477" width="480px" zoomAndPan="magnify"><defs><filter height="300%" id="f1r1u7jqc0res4" width="300%" x="-1" y="-1"><feGaussianBlur result="blurOut" stdDeviation="2.0"/><feColorMatrix in="blurOut" result="blurOut2" type="matrix" values="0 0 0 0 0 0 0 0 0 0 0 0 0 0 0 0 0 0 .4 0"/><feOffset dx="4.0" dy="4.0" in="blurOut2" result="blurOut3"/><feBlend in="SourceGraphic" in2="blurOut3" mode="normal"/></filter></defs><g><!--MD5=[b43d9e4f85f31d8a11ba0b3a34fdc4ad]
cluster fablab-components--><rect fill="#FFFFFF" filter="url(#f1r1u7jqc0res4)" height="458" style="stroke: #000000; stroke-width: 1.5;" width="309" x="159" y="7"/><text fill="#000000" font-family="sans-serif" font-size="14" font-weight="bold" lengthAdjust="spacingAndGlyphs" textLength="135" x="246" y="23.5332">fablab-components</text><ellipse cx="313.3204" cy="72.0641" fill="#FEFECE" filter="url(#f1r1u7jqc0res4)" rx="130.8204" ry="28.5641" style="stroke: #A80036; stroke-width: 1.5;"/><text fill="#000000" font-family="sans-serif" font-size="14" lengthAdjust="spacingAndGlyphs" textLength="240" x="193.3204" y="77.3688">UC1: Encoder un nouveau composant</text><ellipse cx="313.5675" cy="160.2135" fill="#FEFECE" filter="url(#f1r1u7jqc0res4)" rx="109.0675" ry="24.2135" style="stroke: #A80036; stroke-width: 1.5;"/><text fill="#000000" font-family="sans-serif" font-size="14" lengthAdjust="spacingAndGlyphs" textLength="193" x="217.0675" y="165.5182">UC2: Enregistrer un conteneur</text><ellipse cx="313.6774" cy="244.0355" fill="#FEFECE" filter="url(#f1r1u7jqc0res4)" rx="113.1774" ry="25.0355" style="stroke: #A80036; stroke-width: 1.5;"/><text fill="#000000" font-family="sans-serif" font-size="14" lengthAdjust="spacingAndGlyphs" textLength="202" x="212.6774" y="249.3402">UC3: Rechercher un composant</text><ellipse cx="313.3903" cy="329.0781" fill="#FEFECE" filter="url(#f1r1u7jqc0res4)" rx="110.8903" ry="24.5781" style="stroke: #A80036; stroke-width: 1.5;"/><text fill="#000000" font-family="sans-serif" font-size="14" lengthAdjust="spacingAndGlyphs" textLength="197" x="214.8903" y="334.3827">UC4: Rechercher un conteneur</text><ellipse cx="313.359" cy="419.0718" fill="#FEFECE" filter="url(#f1r1u7jqc0res4)" rx="138.359" ry="30.0718" style="stroke: #A80036; stroke-width: 1.5;"/><text fill="#000000" font-family="sans-serif" font-size="14" lengthAdjust="spacingAndGlyphs" textLength="256" x="185.359" y="424.3765">UC5: Modifier l'inventaire d'un conteneur</text><!--MD5=[2b2d5ad518bf6746de4ffeb5be0566d4]
entity manager--><ellipse cx="60.5" cy="212" fill="#FEFECE" filter="url(#f1r1u7jqc0res4)" rx="8" ry="8" style="stroke: #A80036; stroke-width: 1.5;"/><path d="M60.5,220 L60.5,247 M47.5,228 L73.5,228 M60.5,247 L47.5,262 M60.5,247 L73.5,262 " fill="none" filter="url(#f1r1u7jqc0res4)" style="stroke: #A80036; stroke-width: 1.5;"/><text fill="#000000" font-family="sans-serif" font-size="14" lengthAdjust="spacingAndGlyphs" textLength="109" x="6" y="282.0332">FabLab manager</text><!--MD5=[02cb646c1cfd92f31b307006238a5273]
link manager to UC1--><path d="M81.58,202.29 C96.95,174.57 120.65,139.45 151,118 C167.24,106.52 186.29,97.89 205.51,91.41 " fill="none" id="manager-to-UC1" style="stroke: #A80036; stroke-width: 1.0;"/><polygon fill="#A80036" points="210.39,89.81,200.5922,88.8082,205.6381,91.3654,203.0809,96.4113,210.39,89.81" style="stroke: #A80036; stroke-width: 1.0;"/><!--MD5=[abe4133748cf55a39efad795b118a522]
link manager to UC2--><path d="M115.18,216.08 C126.81,210.64 139.17,205.29 151,201 C175.98,191.93 203.83,184.09 229.28,177.76 " fill="none" id="manager-to-UC2" style="stroke: #A80036; stroke-width: 1.0;"/><polygon fill="#A80036" points="234.33,176.52,224.6321,174.802,229.4768,177.7226,226.5562,182.5672,234.33,176.52" style="stroke: #A80036; stroke-width: 1.0;"/><!--MD5=[c68255a7a2e3595a9bb7922b8ebbc053]
link manager to UC3--><path d="M115.04,244 C138.55,244 167.16,244 195.22,244 " fill="none" id="manager-to-UC3" style="stroke: #A80036; stroke-width: 1.0;"/><polygon fill="#A80036" points="200.45,244,191.45,240,195.45,244,191.45,248,200.45,244" style="stroke: #A80036; stroke-width: 1.0;"/><!--MD5=[829805f003ae2045751f006be58a2433]
link manager to UC4--><path d="M115.27,271.12 C126.89,276.45 139.23,281.71 151,286 C176.43,295.27 204.77,303.49 230.52,310.2 " fill="none" id="manager-to-UC4" style="stroke: #A80036; stroke-width: 1.0;"/><polygon fill="#A80036" points="235.64,311.52,227.9212,305.4028,230.7978,310.2736,225.927,313.1503,235.64,311.52" style="stroke: #A80036; stroke-width: 1.0;"/><!--MD5=[dfd5c4c0369cfc9a427b131c4abaf2ca]
link manager to UC5--><path d="M81.41,285.63 C96.78,313.56 120.55,349.13 151,371 C166.77,382.33 185.22,391.01 203.9,397.65 " fill="none" id="manager-to-UC5" style="stroke: #A80036; stroke-width: 1.0;"/><polygon fill="#A80036" points="208.65,399.3,201.4676,392.5611,203.9285,397.6546,198.835,400.1155,208.65,399.3" style="stroke: #A80036; stroke-width: 1.0;"/><!--MD5=[f8cfa4cb12234741ce2943f6f4fa2972]
@startuml usecases
left to right direction

actor "FabLab manager" as manager

rectangle "fablab-components" {
  (UC1: Encoder un nouveau composant) as UC1
  (UC2: Enregistrer un conteneur) as UC2
  (UC3: Rechercher un composant) as UC3
  (UC4: Rechercher un conteneur) as UC4
  (UC5: Modifier l'inventaire d'un conteneur) as UC5
}

manager - -> UC1
manager - -> UC2
manager - -> UC3
manager - -> UC4
manager - -> UC5

@enduml

PlantUML version 1.2020.18(Wed Sep 30 21:40:44 CEST 2020)
(GPL source distribution)
Java Runtime: Java(TM) SE Runtime Environment
JVM: Java HotSpot(TM) 64-Bit Server VM
Default Encoding: Cp1252
Language: fr
Country: FR
--></g></svg>