<?xml version="1.0" encoding="UTF-8" standalone="no"?><svg xmlns="http://www.w3.org/2000/svg" xmlns:xlink="http://www.w3.org/1999/xlink" contentScriptType="application/ecmascript" contentStyleType="text/css" height="447px" preserveAspectRatio="none" style="width:447px;height:447px;" version="1.1" viewBox="0 0 447 447" width="447px" zoomAndPan="magnify"><defs><filter height="300%" id="f6kq96y18ugpf" width="300%" x="-1" y="-1"><feGaussianBlur result="blurOut" stdDeviation="2.0"/><feColorMatrix in="blurOut" result="blurOut2" type="matrix" values="0 0 0 0 0 0 0 0 0 0 0 0 0 0 0 0 0 0 .4 0"/><feOffset dx="4.0" dy="4.0" in="blurOut2" result="blurOut3"/><feBlend in="SourceGraphic" in2="blurOut3" mode="normal"/></filter></defs><g><!--MD5=[b43d9e4f85f31d8a11ba0b3a34fdc4ad]
cluster fablab-components--><rect fill="#FFFFFF" filter="url(#f6kq96y18ugpf)" height="428" style="stroke: #000000; stroke-width: 1.5;" width="276" x="159" y="7"/><text fill="#000000" font-family="sans-serif" font-size="14" font-weight="bold" lengthAdjust="spacingAndGlyphs" textLength="135" x="229.5" y="23.5332">fablab-components</text><ellipse cx="297.0541" cy="68.8108" fill="#FEFECE" filter="url(#f6kq96y18ugpf)" rx="114.5541" ry="25.3108" style="stroke: #A80036; stroke-width: 1.5;"/><text fill="#000000" font-family="sans-serif" font-size="14" lengthAdjust="spacingAndGlyphs" textLength="205" x="194.5541" y="74.1155">Encoder un nouveau composant</text><ellipse cx="296.9382" cy="151.0876" fill="#FEFECE" filter="url(#f6kq96y18ugpf)" rx="93.4382" ry="21.0876" style="stroke: #A80036; stroke-width: 1.5;"/><text fill="#000000" font-family="sans-serif" font-size="14" lengthAdjust="spacingAndGlyphs" textLength="158" x="217.9382" y="156.3923">Enregistrer un conteneur</text><ellipse cx="296.8945" cy="228.8789" fill="#FEFECE" filter="url(#f6kq96y18ugpf)" rx="97.3945" ry="21.8789" style="stroke: #A80036; stroke-width: 1.5;"/><text fill="#000000" font-family="sans-serif" font-size="14" lengthAdjust="spacingAndGlyphs" textLength="167" x="213.3945" y="234.1836">Rechercher un composant</text><ellipse cx="297.1904" cy="307.9381" fill="#FEFECE" filter="url(#f6kq96y18ugpf)" rx="95.1904" ry="21.4381" style="stroke: #A80036; stroke-width: 1.5;"/><text fill="#000000" font-family="sans-serif" font-size="14" lengthAdjust="spacingAndGlyphs" textLength="162" x="216.1904" y="313.2428">Rechercher un conteneur</text><ellipse cx="296.9467" cy="391.7893" fill="#FEFECE" filter="url(#f6kq96y18ugpf)" rx="121.9467" ry="26.7893" style="stroke: #A80036; stroke-width: 1.5;"/><text fill="#000000" font-family="sans-serif" font-size="14" lengthAdjust="spacingAndGlyphs" textLength="221" x="186.4467" y="397.094">Modifier l'inventaire d'un conteneur</text><!--MD5=[2b2d5ad518bf6746de4ffeb5be0566d4]
entity manager--><ellipse cx="60.5" cy="197" fill="#FEFECE" filter="url(#f6kq96y18ugpf)" rx="8" ry="8" style="stroke: #A80036; stroke-width: 1.5;"/><path d="M60.5,205 L60.5,232 M47.5,213 L73.5,213 M60.5,232 L47.5,247 M60.5,232 L73.5,247 " fill="none" filter="url(#f6kq96y18ugpf)" style="stroke: #A80036; stroke-width: 1.5;"/><text fill="#000000" font-family="sans-serif" font-size="14" lengthAdjust="spacingAndGlyphs" textLength="109" x="6" y="267.0332">FabLab manager</text><!--MD5=[02cb646c1cfd92f31b307006238a5273]
link manager to UC1--><path d="M84.23,187.29 C99.92,162.12 122.99,131.29 151,112 C166.62,101.25 184.96,93.14 203.25,87.04 " fill="none" id="manager-to-UC1" style="stroke: #A80036; stroke-width: 1.0;"/><polygon fill="#A80036" points="208.4,85.37,198.6059,84.333,203.6425,86.9083,201.0672,91.945,208.4,85.37" style="stroke: #A80036; stroke-width: 1.0;"/><!--MD5=[abe4133748cf55a39efad795b118a522]
link manager to UC2--><path d="M115.35,203.22 C126.97,198.15 139.28,193.12 151,189 C174.84,180.61 201.45,173.12 225.3,167.05 " fill="none" id="manager-to-UC2" style="stroke: #A80036; stroke-width: 1.0;"/><polygon fill="#A80036" points="230.35,165.78,220.6427,164.1159,225.5035,167.0095,222.6099,171.8703,230.35,165.78" style="stroke: #A80036; stroke-width: 1.0;"/><!--MD5=[c68255a7a2e3595a9bb7922b8ebbc053]
link manager to UC3--><path d="M115.01,229 C138.55,229 167.02,229 194.34,229 " fill="none" id="manager-to-UC3" style="stroke: #A80036; stroke-width: 1.0;"/><polygon fill="#A80036" points="199.42,229,190.42,225,194.42,229,190.42,233,199.42,229" style="stroke: #A80036; stroke-width: 1.0;"/><!--MD5=[829805f003ae2045751f006be58a2433]
link manager to UC4--><path d="M115.44,253.97 C127.05,258.93 139.34,263.87 151,268 C175.25,276.58 202.3,284.48 226.41,290.95 " fill="none" id="manager-to-UC4" style="stroke: #A80036; stroke-width: 1.0;"/><polygon fill="#A80036" points="231.51,292.31,223.8423,286.1289,226.6784,291.0235,221.7838,293.8596,231.51,292.31" style="stroke: #A80036; stroke-width: 1.0;"/><!--MD5=[dfd5c4c0369cfc9a427b131c4abaf2ca]
link manager to UC5--><path d="M84.06,270.66 C99.76,296.05 122.89,327.3 151,347 C166.09,357.58 183.76,365.74 201.47,372.01 " fill="none" id="manager-to-UC5" style="stroke: #A80036; stroke-width: 1.0;"/><polygon fill="#A80036" points="206.46,373.73,199.2531,367.0173,201.7325,372.1018,196.648,374.5812,206.46,373.73" style="stroke: #A80036; stroke-width: 1.0;"/><!--MD5=[00158ad62c25d910990350e176ad6b77]
@startuml usecases
left to right direction

actor "FabLab manager" as manager

rectangle "fablab-components" {
  (Encoder un nouveau composant) as UC1
  (Enregistrer un conteneur) as UC2
  (Rechercher un composant) as UC3
  (Rechercher un conteneur) as UC4
  (Modifier l'inventaire d'un conteneur) as UC5
}

manager - -> UC1
manager - -> UC2
manager - -> UC3
manager - -> UC4
manager - -> UC5

@enduml

PlantUML version 1.2020.18(Wed Sep 30 21:40:44 CEST 2020)
(GPL source distribution)
Java Runtime: Java(TM) SE Runtime Environment
JVM: Java HotSpot(TM) 64-Bit Server VM
Default Encoding: Cp1252
Language: fr
Country: FR
--></g></svg>