<?xml version="1.0" encoding="UTF-8" standalone="no"?><svg xmlns="http://www.w3.org/2000/svg" xmlns:xlink="http://www.w3.org/1999/xlink" contentScriptType="application/ecmascript" contentStyleType="text/css" height="560px" preserveAspectRatio="none" style="width:484px;height:560px;" version="1.1" viewBox="0 0 484 560" width="484px" zoomAndPan="magnify"><defs><filter height="300%" id="fsrwhcy5jjqpp" width="300%" x="-1" y="-1"><feGaussianBlur result="blurOut" stdDeviation="2.0"/><feColorMatrix in="blurOut" result="blurOut2" type="matrix" values="0 0 0 0 0 0 0 0 0 0 0 0 0 0 0 0 0 0 .4 0"/><feOffset dx="4.0" dy="4.0" in="blurOut2" result="blurOut3"/><feBlend in="SourceGraphic" in2="blurOut3" mode="normal"/></filter></defs><g><!--MD5=[b43d9e4f85f31d8a11ba0b3a34fdc4ad]
cluster fablab-components--><rect fill="#FFFFFF" filter="url(#fsrwhcy5jjqpp)" height="541" style="stroke:#000000;stroke-width:1.5;" width="313" x="159" y="7"/><text fill="#000000" font-family="sans-serif" font-size="14" font-weight="bold" lengthAdjust="spacingAndGlyphs" textLength="135" x="248" y="23.5332">fablab-components</text><ellipse cx="315.434" cy="67.9868" fill="#FEFECE" filter="url(#fsrwhcy5jjqpp)" rx="110.434" ry="24.4868" style="stroke:#A80036;stroke-width:1.5;"/><text fill="#000000" font-family="sans-serif" font-size="14" lengthAdjust="spacingAndGlyphs" textLength="196" x="217.434" y="73.2915">UC1: Encoder un nouvel article</text><ellipse cx="315.5675" cy="152.2135" fill="#FEFECE" filter="url(#fsrwhcy5jjqpp)" rx="109.0675" ry="24.2135" style="stroke:#A80036;stroke-width:1.5;"/><text fill="#000000" font-family="sans-serif" font-size="14" lengthAdjust="spacingAndGlyphs" textLength="193" x="219.0675" y="157.5182">UC2: Enregistrer un conteneur</text><ellipse cx="315.6681" cy="233.2336" fill="#FEFECE" filter="url(#fsrwhcy5jjqpp)" rx="99.1681" ry="22.2336" style="stroke:#A80036;stroke-width:1.5;"/><text fill="#000000" font-family="sans-serif" font-size="14" lengthAdjust="spacingAndGlyphs" textLength="171" x="230.1681" y="238.5383">UC3: Rechercher un article</text><ellipse cx="315.3903" cy="315.0781" fill="#FEFECE" filter="url(#fsrwhcy5jjqpp)" rx="110.8903" ry="24.5781" style="stroke:#A80036;stroke-width:1.5;"/><text fill="#000000" font-family="sans-serif" font-size="14" lengthAdjust="spacingAndGlyphs" textLength="197" x="216.8903" y="320.3827">UC4: Rechercher un conteneur</text><ellipse cx="315.359" cy="405.0718" fill="#FEFECE" filter="url(#fsrwhcy5jjqpp)" rx="138.359" ry="30.0718" style="stroke:#A80036;stroke-width:1.5;"/><text fill="#000000" font-family="sans-serif" font-size="14" lengthAdjust="spacingAndGlyphs" textLength="256" x="187.359" y="410.3765">UC5: Modifier l'inventaire d'un conteneur</text><ellipse cx="315.7255" cy="501.0451" fill="#FEFECE" filter="url(#fsrwhcy5jjqpp)" rx="140.7255" ry="30.5451" style="stroke:#A80036;stroke-width:1.5;"/><text fill="#000000" font-family="sans-serif" font-size="14" lengthAdjust="spacingAndGlyphs" textLength="261" x="185.2255" y="506.3498">UC6: Modifier l'inventaire d'un composant</text><!--MD5=[2b2d5ad518bf6746de4ffeb5be0566d4]
entity manager--><ellipse cx="60.5" cy="242" fill="#FEFECE" filter="url(#fsrwhcy5jjqpp)" rx="8" ry="8" style="stroke:#A80036;stroke-width:1.5;"/><path d="M60.5,250 L60.5,277 M47.5,258 L73.5,258 M60.5,277 L47.5,292 M60.5,277 L73.5,292 " fill="none" filter="url(#fsrwhcy5jjqpp)" style="stroke:#A80036;stroke-width:1.5;"/><text fill="#000000" font-family="sans-serif" font-size="14" lengthAdjust="spacingAndGlyphs" textLength="109" x="6" y="312.0332">FabLab manager</text><!--MD5=[02cb646c1cfd92f31b307006238a5273]
link manager to UC1--><path d="M73.65,232.34 C86.73,194.83 111.2,140.98 151,110 C168.74,96.19 190.53,86.89 212.34,80.63 " fill="none" id="manager-to-UC1" style="stroke:#A80036;stroke-width:1.0;"/><polygon fill="#A80036" points="217.29,79.26,207.5462,77.8252,212.4738,80.6034,209.6956,85.531,217.29,79.26" style="stroke:#A80036;stroke-width:1.0;"/><!--MD5=[abe4133748cf55a39efad795b118a522]
link manager to UC2--><path d="M99.23,232.26 C114.11,217.98 132.15,203.07 151,193 C172.57,181.48 197.47,173.11 221.24,167.06 " fill="none" id="manager-to-UC2" style="stroke:#A80036;stroke-width:1.0;"/><polygon fill="#A80036" points="226.3,165.81,216.5974,164.119,221.4501,167.026,218.5431,171.8788,226.3,165.81" style="stroke:#A80036;stroke-width:1.0;"/><!--MD5=[c68255a7a2e3595a9bb7922b8ebbc053]
link manager to UC3--><path d="M115.15,265.3 C148.47,259.91 192.01,252.85 229.9,246.71 " fill="none" id="manager-to-UC3" style="stroke:#A80036;stroke-width:1.0;"/><polygon fill="#A80036" points="234.97,245.89,225.4465,243.3793,230.0342,246.6889,226.7247,251.2766,234.97,245.89" style="stroke:#A80036;stroke-width:1.0;"/><!--MD5=[829805f003ae2045751f006be58a2433]
link manager to UC4--><path d="M115.15,282.7 C145.71,287.65 184.86,293.99 220.37,299.75 " fill="none" id="manager-to-UC4" style="stroke:#A80036;stroke-width:1.0;"/><polygon fill="#A80036" points="225.58,300.59,217.3347,295.2034,220.6442,299.7911,216.0565,303.1007,225.58,300.59" style="stroke:#A80036;stroke-width:1.0;"/><!--MD5=[dfd5c4c0369cfc9a427b131c4abaf2ca]
link manager to UC5--><path d="M98.42,315.52 C113.47,330.37 131.84,346.11 151,357 C169.46,367.48 190.41,375.86 211.01,382.49 " fill="none" id="manager-to-UC5" style="stroke:#A80036;stroke-width:1.0;"/><polygon fill="#A80036" points="215.96,384.05,208.5739,377.535,211.1901,382.5505,206.1747,385.1668,215.96,384.05" style="stroke:#A80036;stroke-width:1.0;"/><!--MD5=[ff406c4c61ea46848e293649dae8be20]
link manager to UC6--><path d="M72.05,315.69 C84.39,356.17 108.73,416.54 151,452 C165.42,464.1 182.75,473.21 200.66,480.07 " fill="none" id="manager-to-UC6" style="stroke:#A80036;stroke-width:1.0;"/><polygon fill="#A80036" points="205.73,481.95,198.6891,475.0634,201.0437,480.2069,195.9001,482.5615,205.73,481.95" style="stroke:#A80036;stroke-width:1.0;"/><!--MD5=[f827127deb6ef3b4b0dc8e0863272513]
@startuml usecases
left to right direction

actor "FabLab manager" as manager

rectangle "fablab-components" {
  (UC1: Encoder un nouvel article) as UC1
  (UC2: Enregistrer un conteneur) as UC2
  (UC3: Rechercher un article) as UC3
  (UC4: Rechercher un conteneur) as UC4
  (UC5: Modifier l'inventaire d'un conteneur) as UC5
  (UC6: Modifier l'inventaire d'un composant) as UC6
}

manager - -> UC1
manager - -> UC2
manager - -> UC3
manager - -> UC4
manager - -> UC5
manager - -> UC6

@enduml

PlantUML version 1.2020.22(Sun Dec 06 10:36:27 CET 2020)
(GPL source distribution)
Java Runtime: Java(TM) SE Runtime Environment
JVM: Java HotSpot(TM) 64-Bit Server VM
Default Encoding: Cp1252
Language: fr
Country: FR
--></g></svg>