<?xml version="1.0" encoding="UTF-8" standalone="no"?><svg xmlns="http://www.w3.org/2000/svg" xmlns:xlink="http://www.w3.org/1999/xlink" contentScriptType="application/ecmascript" contentStyleType="text/css" height="463px" preserveAspectRatio="none" style="width:480px;height:463px;" version="1.1" viewBox="0 0 480 463" width="480px" zoomAndPan="magnify"><defs><filter height="300%" id="fxl3whoqs6i8m" width="300%" x="-1" y="-1"><feGaussianBlur result="blurOut" stdDeviation="2.0"/><feColorMatrix in="blurOut" result="blurOut2" type="matrix" values="0 0 0 0 0 0 0 0 0 0 0 0 0 0 0 0 0 0 .4 0"/><feOffset dx="4.0" dy="4.0" in="blurOut2" result="blurOut3"/><feBlend in="SourceGraphic" in2="blurOut3" mode="normal"/></filter></defs><g><!--MD5=[b43d9e4f85f31d8a11ba0b3a34fdc4ad]
cluster fablab-components--><rect fill="#FFFFFF" filter="url(#fxl3whoqs6i8m)" height="444" style="stroke: #000000; stroke-width: 1.5;" width="309" x="159" y="7"/><text fill="#000000" font-family="sans-serif" font-size="14" font-weight="bold" lengthAdjust="spacingAndGlyphs" textLength="135" x="246" y="23.5332">fablab-components</text><ellipse cx="313.434" cy="67.9868" fill="#FEFECE" filter="url(#fxl3whoqs6i8m)" rx="110.434" ry="24.4868" style="stroke: #A80036; stroke-width: 1.5;"/><text fill="#000000" font-family="sans-serif" font-size="14" lengthAdjust="spacingAndGlyphs" textLength="196" x="215.434" y="73.2915">UC1: Encoder un nouvel article</text><ellipse cx="313.5675" cy="152.2135" fill="#FEFECE" filter="url(#fxl3whoqs6i8m)" rx="109.0675" ry="24.2135" style="stroke: #A80036; stroke-width: 1.5;"/><text fill="#000000" font-family="sans-serif" font-size="14" lengthAdjust="spacingAndGlyphs" textLength="193" x="217.0675" y="157.5182">UC2: Enregistrer un conteneur</text><ellipse cx="313.6681" cy="233.2336" fill="#FEFECE" filter="url(#fxl3whoqs6i8m)" rx="99.1681" ry="22.2336" style="stroke: #A80036; stroke-width: 1.5;"/><text fill="#000000" font-family="sans-serif" font-size="14" lengthAdjust="spacingAndGlyphs" textLength="171" x="228.1681" y="238.5383">UC3: Rechercher un article</text><ellipse cx="313.3903" cy="315.0781" fill="#FEFECE" filter="url(#fxl3whoqs6i8m)" rx="110.8903" ry="24.5781" style="stroke: #A80036; stroke-width: 1.5;"/><text fill="#000000" font-family="sans-serif" font-size="14" lengthAdjust="spacingAndGlyphs" textLength="197" x="214.8903" y="320.3827">UC4: Rechercher un conteneur</text><ellipse cx="313.359" cy="405.0718" fill="#FEFECE" filter="url(#fxl3whoqs6i8m)" rx="138.359" ry="30.0718" style="stroke: #A80036; stroke-width: 1.5;"/><text fill="#000000" font-family="sans-serif" font-size="14" lengthAdjust="spacingAndGlyphs" textLength="256" x="185.359" y="410.3765">UC5: Modifier l'inventaire d'un conteneur</text><!--MD5=[2b2d5ad518bf6746de4ffeb5be0566d4]
entity manager--><ellipse cx="60.5" cy="201" fill="#FEFECE" filter="url(#fxl3whoqs6i8m)" rx="8" ry="8" style="stroke: #A80036; stroke-width: 1.5;"/><path d="M60.5,209 L60.5,236 M47.5,217 L73.5,217 M60.5,236 L47.5,251 M60.5,236 L73.5,251 " fill="none" filter="url(#fxl3whoqs6i8m)" style="stroke: #A80036; stroke-width: 1.5;"/><text fill="#000000" font-family="sans-serif" font-size="14" lengthAdjust="spacingAndGlyphs" textLength="109" x="6" y="271.0332">FabLab manager</text><!--MD5=[02cb646c1cfd92f31b307006238a5273]
link manager to UC1--><path d="M81.99,191.48 C97.4,164.41 120.99,130.45 151,110 C169.7,97.26 192.02,88.39 214.01,82.2 " fill="none" id="manager-to-UC1" style="stroke: #A80036; stroke-width: 1.0;"/><polygon fill="#A80036" points="218.99,80.85,209.2554,79.3541,214.1655,82.1632,211.3565,87.0733,218.99,80.85" style="stroke: #A80036; stroke-width: 1.0;"/><!--MD5=[abe4133748cf55a39efad795b118a522]
link manager to UC2--><path d="M115.33,207.15 C126.94,202.08 139.26,197.08 151,193 C176.36,184.19 204.56,176.37 230.21,170 " fill="none" id="manager-to-UC2" style="stroke: #A80036; stroke-width: 1.0;"/><polygon fill="#A80036" points="235.3,168.74,225.6033,167.0154,230.4459,169.9392,227.5221,174.7819,235.3,168.74" style="stroke: #A80036; stroke-width: 1.0;"/><!--MD5=[c68255a7a2e3595a9bb7922b8ebbc053]
link manager to UC3--><path d="M115.04,233 C142.51,233 176.92,233 209.3,233 " fill="none" id="manager-to-UC3" style="stroke: #A80036; stroke-width: 1.0;"/><polygon fill="#A80036" points="214.47,233,205.47,229,209.47,233,205.47,237,214.47,233" style="stroke: #A80036; stroke-width: 1.0;"/><!--MD5=[829805f003ae2045751f006be58a2433]
link manager to UC4--><path d="M115.41,258.05 C127.02,263 139.32,267.93 151,272 C176.81,281 205.5,289.2 231.45,295.97 " fill="none" id="manager-to-UC4" style="stroke: #A80036; stroke-width: 1.0;"/><polygon fill="#A80036" points="236.6,297.31,228.8938,291.177,231.7604,296.0537,226.8837,298.9203,236.6,297.31" style="stroke: #A80036; stroke-width: 1.0;"/><!--MD5=[dfd5c4c0369cfc9a427b131c4abaf2ca]
link manager to UC5--><path d="M82.14,274.53 C97.62,301.67 121.23,335.87 151,357 C166.83,368.24 185.31,376.87 204,383.5 " fill="none" id="manager-to-UC5" style="stroke: #A80036; stroke-width: 1.0;"/><polygon fill="#A80036" points="208.76,385.15,201.5531,378.4373,204.0325,383.5218,198.948,386.0012,208.76,385.15" style="stroke: #A80036; stroke-width: 1.0;"/><!--MD5=[c432905090ca2ea26390cee7a5fda3dc]
@startuml usecases
left to right direction

actor "FabLab manager" as manager

rectangle "fablab-components" {
  (UC1: Encoder un nouvel article) as UC1
  (UC2: Enregistrer un conteneur) as UC2
  (UC3: Rechercher un article) as UC3
  (UC4: Rechercher un conteneur) as UC4
  (UC5: Modifier l'inventaire d'un conteneur) as UC5
}

manager - -> UC1
manager - -> UC2
manager - -> UC3
manager - -> UC4
manager - -> UC5

@enduml

PlantUML version 1.2020.18(Wed Sep 30 21:40:44 CEST 2020)
(GPL source distribution)
Java Runtime: Java(TM) SE Runtime Environment
JVM: Java HotSpot(TM) 64-Bit Server VM
Default Encoding: Cp1252
Language: fr
Country: FR
--></g></svg>