<?xml version="1.0" encoding="UTF-8" standalone="no"?><svg xmlns="http://www.w3.org/2000/svg" xmlns:xlink="http://www.w3.org/1999/xlink" contentScriptType="application/ecmascript" contentStyleType="text/css" height="402px" preserveAspectRatio="none" style="width:318px;height:402px;" version="1.1" viewBox="0 0 318 402" width="318px" zoomAndPan="magnify"><defs><filter height="300%" id="ffz9wwrctj32k" width="300%" x="-1" y="-1"><feGaussianBlur result="blurOut" stdDeviation="2.0"/><feColorMatrix in="blurOut" result="blurOut2" type="matrix" values="0 0 0 0 0 0 0 0 0 0 0 0 0 0 0 0 0 0 .4 0"/><feOffset dx="4.0" dy="4.0" in="blurOut2" result="blurOut3"/><feBlend in="SourceGraphic" in2="blurOut3" mode="normal"/></filter></defs><g><ellipse cx="156" cy="20" fill="#000000" filter="url(#ffz9wwrctj32k)" rx="10" ry="10" style="stroke:none;stroke-width:1.0;"/><rect fill="#FEFECE" filter="url(#ffz9wwrctj32k)" height="35.0938" rx="12.5" ry="12.5" style="stroke:#A80036;stroke-width:1.5;" width="208" x="52" y="50"/><text fill="#000000" font-family="sans-serif" font-size="12" lengthAdjust="spacingAndGlyphs" textLength="188" x="62" y="72.457">chercher composant ou conteneur</text><rect fill="#FEFECE" filter="url(#ffz9wwrctj32k)" height="35.0938" rx="12.5" ry="12.5" style="stroke:#A80036;stroke-width:1.5;" width="290" x="11" y="105.0938"/><text fill="#000000" font-family="sans-serif" font-size="12" lengthAdjust="spacingAndGlyphs" textLength="270" x="21" y="127.5508">afficher inventaire du composant ou du conteneur</text><rect fill="#FEFECE" filter="url(#ffz9wwrctj32k)" height="35.0938" rx="12.5" ry="12.5" style="stroke:#A80036;stroke-width:1.5;" width="228" x="42" y="209.1055"/><text fill="#000000" font-family="sans-serif" font-size="12" lengthAdjust="spacingAndGlyphs" textLength="208" x="52" y="231.5625">afficher une nouvelle ligne d'inventaire</text><polygon fill="#FEFECE" filter="url(#ffz9wwrctj32k)" points="104,160.1875,208,160.1875,220,172.1875,208,184.1875,104,184.1875,92,172.1875,104,160.1875" style="stroke:#A80036;stroke-width:1.5;"/><text fill="#000000" font-family="sans-serif" font-size="11" lengthAdjust="spacingAndGlyphs" textLength="14" x="160" y="195.6064">oui</text><text fill="#000000" font-family="sans-serif" font-size="11" lengthAdjust="spacingAndGlyphs" textLength="104" x="104" y="176.6885">nouvel emplacement?</text><text fill="#000000" font-family="sans-serif" font-size="11" lengthAdjust="spacingAndGlyphs" textLength="18" x="220" y="169.7705">non</text><polygon fill="#FEFECE" filter="url(#ffz9wwrctj32k)" points="156,264.1992,168,276.1992,156,288.1992,144,276.1992,156,264.1992" style="stroke:#A80036;stroke-width:1.5;"/><rect fill="#FEFECE" filter="url(#ffz9wwrctj32k)" height="35.0938" rx="12.5" ry="12.5" style="stroke:#A80036;stroke-width:1.5;" width="173" x="69.5" y="308.1992"/><text fill="#000000" font-family="sans-serif" font-size="12" lengthAdjust="spacingAndGlyphs" textLength="153" x="79.5" y="330.6563">modifier la ligne d'inventaire</text><ellipse cx="156" cy="374.293" fill="#FFFFFF" filter="url(#ffz9wwrctj32k)" rx="11" ry="11" style="stroke:#000000;stroke-width:1.0;"/><ellipse cx="156" cy="374.293" fill="#000000" rx="6" ry="6" style="stroke:#7F7F7F;stroke-width:1.0;"/><line style="stroke:#A80036;stroke-width:1.5;" x1="156" x2="156" y1="30" y2="50"/><polygon fill="#A80036" points="152,40,156,50,160,40,156,44" style="stroke:#A80036;stroke-width:1.0;"/><line style="stroke:#A80036;stroke-width:1.5;" x1="156" x2="156" y1="85.0938" y2="105.0938"/><polygon fill="#A80036" points="152,95.0938,156,105.0938,160,95.0938,156,99.0938" style="stroke:#A80036;stroke-width:1.0;"/><line style="stroke:#A80036;stroke-width:1.5;" x1="156" x2="156" y1="184.1875" y2="209.1055"/><polygon fill="#A80036" points="152,199.1055,156,209.1055,160,199.1055,156,203.1055" style="stroke:#A80036;stroke-width:1.0;"/><line style="stroke:#A80036;stroke-width:1.5;" x1="220" x2="280" y1="172.1875" y2="172.1875"/><polygon fill="#A80036" points="276,216.6523,280,226.6523,284,216.6523,280,220.6523" style="stroke:#A80036;stroke-width:1.5;"/><line style="stroke:#A80036;stroke-width:1.5;" x1="280" x2="280" y1="172.1875" y2="276.1992"/><line style="stroke:#A80036;stroke-width:1.5;" x1="280" x2="168" y1="276.1992" y2="276.1992"/><polygon fill="#A80036" points="178,272.1992,168,276.1992,178,280.1992,174,276.1992" style="stroke:#A80036;stroke-width:1.0;"/><line style="stroke:#A80036;stroke-width:1.5;" x1="156" x2="156" y1="244.1992" y2="264.1992"/><polygon fill="#A80036" points="152,254.1992,156,264.1992,160,254.1992,156,258.1992" style="stroke:#A80036;stroke-width:1.0;"/><line style="stroke:#A80036;stroke-width:1.5;" x1="156" x2="156" y1="140.1875" y2="160.1875"/><polygon fill="#A80036" points="152,150.1875,156,160.1875,160,150.1875,156,154.1875" style="stroke:#A80036;stroke-width:1.0;"/><line style="stroke:#A80036;stroke-width:1.5;" x1="156" x2="156" y1="288.1992" y2="308.1992"/><polygon fill="#A80036" points="152,298.1992,156,308.1992,160,298.1992,156,302.1992" style="stroke:#A80036;stroke-width:1.0;"/><line style="stroke:#A80036;stroke-width:1.5;" x1="156" x2="156" y1="343.293" y2="363.293"/><polygon fill="#A80036" points="152,353.293,156,363.293,160,353.293,156,357.293" style="stroke:#A80036;stroke-width:1.0;"/><!--MD5=[59e2b76d9da5f5aaf061bd12adf531ac]
@startuml modify_inventory_activity
start
:chercher composant ou conteneur;
:afficher inventaire du composant ou du conteneur;
if (nouvel emplacement?) then (oui)
  :afficher une nouvelle ligne d'inventaire;
else (non)
endif
:modifier la ligne d'inventaire;
stop
@enduml

PlantUML version 1.2020.22(Sun Dec 06 10:36:27 CET 2020)
(GPL source distribution)
Java Runtime: Java(TM) SE Runtime Environment
JVM: Java HotSpot(TM) 64-Bit Server VM
Default Encoding: Cp1252
Language: fr
Country: FR
--></g></svg>